M48
; DRILL file KiCad 10.0.4 date 2026-07-22T20:18:39
; FORMAT={-:-/ absolute / metric / decimal}
; #@! TF.CreationDate,2026-07-22T20:18:39+02:00
; #@! TF.GenerationSoftware,Kicad,Pcbnew,10.0.4
; #@! TF.FileFunction,Plated,1,2,PTH
FMAT,2
METRIC
; #@! TA.AperFunction,Plated,PTH,ViaDrill
T1C0.300
; #@! TA.AperFunction,Plated,PTH,ComponentDrill
T2C1.000
; #@! TA.AperFunction,Plated,PTH,ComponentDrill
T3C1.100
%
G90
G05
T1
X123.377Y-114.458
X125.06Y-88.367
X130.662Y-62.694
X150.969Y-82.053
T2
X106.38Y-95.0
X106.46Y-85.46
X107.6Y-56.0
X107.84Y-61.0
X108.92Y-95.0
X109.0Y-85.46
X110.14Y-56.0
X110.38Y-61.0
X111.46Y-95.0
X111.54Y-85.46
X112.68Y-56.0
X112.92Y-61.0
X114.0Y-95.0
X114.08Y-85.46
X115.22Y-56.0
X115.46Y-61.0
X116.54Y-95.0
X116.62Y-85.46
X117.76Y-56.0
X118.0Y-61.0
X119.08Y-95.0
X119.16Y-85.46
X120.3Y-56.0
X120.54Y-61.0
X122.84Y-56.0
X123.08Y-61.0
X125.38Y-56.0
X125.62Y-61.0
X127.92Y-56.0
X128.16Y-61.0
X130.46Y-56.0
X130.7Y-61.0
X133.0Y-56.0
X133.24Y-61.0
X135.54Y-56.0
X135.78Y-61.0
X136.0Y-87.84
X138.08Y-56.0
X138.32Y-61.0
X138.54Y-87.84
X138.84Y-97.0
X140.62Y-56.0
X140.86Y-61.0
X141.08Y-87.84
X141.38Y-97.0
X143.16Y-56.0
X143.4Y-61.0
X143.62Y-87.84
X143.92Y-97.0
X145.7Y-56.0
X145.94Y-61.0
X146.16Y-87.84
X146.46Y-97.0
X148.24Y-56.0
X148.48Y-61.0
X148.7Y-87.84
X149.0Y-97.0
X149.0Y-105.38
X149.0Y-107.92
X149.0Y-110.46
X149.0Y-113.0
X150.78Y-56.0
X151.02Y-61.0
X151.54Y-97.0
X153.32Y-56.0
X153.56Y-61.0
X155.86Y-56.0
X156.1Y-61.0
X158.4Y-56.0
X158.64Y-61.0
X160.94Y-56.0
X161.18Y-61.0
T3
X111.5Y-104.5
X111.5Y-109.0
X118.0Y-104.5
X118.0Y-109.0
M30
