%TF.GenerationSoftware,KiCad,Pcbnew,10.0.4*%
%TF.CreationDate,2026-07-22T20:18:15+02:00*%
%TF.ProjectId,nks_gnd2caras,6e6b735f-676e-4643-9263-617261732e6b,rev?*%
%TF.SameCoordinates,Original*%
%TF.FileFunction,Legend,Top*%
%TF.FilePolarity,Positive*%
%FSLAX46Y46*%
G04 Gerber Fmt 4.6, Leading zero omitted, Abs format (unit mm)*
G04 Created by KiCad (PCBNEW 10.0.4) date 2026-07-22 20:18:15*
%MOMM*%
%LPD*%
G01*
G04 APERTURE LIST*
%ADD10C,0.150000*%
%ADD11C,0.120000*%
G04 APERTURE END LIST*
D10*
X135914819Y-97761904D02*
X136724342Y-97761904D01*
X136724342Y-97761904D02*
X136819580Y-97714285D01*
X136819580Y-97714285D02*
X136867200Y-97666666D01*
X136867200Y-97666666D02*
X136914819Y-97571428D01*
X136914819Y-97571428D02*
X136914819Y-97380952D01*
X136914819Y-97380952D02*
X136867200Y-97285714D01*
X136867200Y-97285714D02*
X136819580Y-97238095D01*
X136819580Y-97238095D02*
X136724342Y-97190476D01*
X136724342Y-97190476D02*
X135914819Y-97190476D01*
X136010057Y-96761904D02*
X135962438Y-96714285D01*
X135962438Y-96714285D02*
X135914819Y-96619047D01*
X135914819Y-96619047D02*
X135914819Y-96380952D01*
X135914819Y-96380952D02*
X135962438Y-96285714D01*
X135962438Y-96285714D02*
X136010057Y-96238095D01*
X136010057Y-96238095D02*
X136105295Y-96190476D01*
X136105295Y-96190476D02*
X136200533Y-96190476D01*
X136200533Y-96190476D02*
X136343390Y-96238095D01*
X136343390Y-96238095D02*
X136914819Y-96809523D01*
X136914819Y-96809523D02*
X136914819Y-96190476D01*
X139833333Y-125679580D02*
X139785714Y-125727200D01*
X139785714Y-125727200D02*
X139642857Y-125774819D01*
X139642857Y-125774819D02*
X139547619Y-125774819D01*
X139547619Y-125774819D02*
X139404762Y-125727200D01*
X139404762Y-125727200D02*
X139309524Y-125631961D01*
X139309524Y-125631961D02*
X139261905Y-125536723D01*
X139261905Y-125536723D02*
X139214286Y-125346247D01*
X139214286Y-125346247D02*
X139214286Y-125203390D01*
X139214286Y-125203390D02*
X139261905Y-125012914D01*
X139261905Y-125012914D02*
X139309524Y-124917676D01*
X139309524Y-124917676D02*
X139404762Y-124822438D01*
X139404762Y-124822438D02*
X139547619Y-124774819D01*
X139547619Y-124774819D02*
X139642857Y-124774819D01*
X139642857Y-124774819D02*
X139785714Y-124822438D01*
X139785714Y-124822438D02*
X139833333Y-124870057D01*
X140738095Y-124774819D02*
X140261905Y-124774819D01*
X140261905Y-124774819D02*
X140214286Y-125251009D01*
X140214286Y-125251009D02*
X140261905Y-125203390D01*
X140261905Y-125203390D02*
X140357143Y-125155771D01*
X140357143Y-125155771D02*
X140595238Y-125155771D01*
X140595238Y-125155771D02*
X140690476Y-125203390D01*
X140690476Y-125203390D02*
X140738095Y-125251009D01*
X140738095Y-125251009D02*
X140785714Y-125346247D01*
X140785714Y-125346247D02*
X140785714Y-125584342D01*
X140785714Y-125584342D02*
X140738095Y-125679580D01*
X140738095Y-125679580D02*
X140690476Y-125727200D01*
X140690476Y-125727200D02*
X140595238Y-125774819D01*
X140595238Y-125774819D02*
X140357143Y-125774819D01*
X140357143Y-125774819D02*
X140261905Y-125727200D01*
X140261905Y-125727200D02*
X140214286Y-125679580D01*
X122783333Y-125679580D02*
X122735714Y-125727200D01*
X122735714Y-125727200D02*
X122592857Y-125774819D01*
X122592857Y-125774819D02*
X122497619Y-125774819D01*
X122497619Y-125774819D02*
X122354762Y-125727200D01*
X122354762Y-125727200D02*
X122259524Y-125631961D01*
X122259524Y-125631961D02*
X122211905Y-125536723D01*
X122211905Y-125536723D02*
X122164286Y-125346247D01*
X122164286Y-125346247D02*
X122164286Y-125203390D01*
X122164286Y-125203390D02*
X122211905Y-125012914D01*
X122211905Y-125012914D02*
X122259524Y-124917676D01*
X122259524Y-124917676D02*
X122354762Y-124822438D01*
X122354762Y-124822438D02*
X122497619Y-124774819D01*
X122497619Y-124774819D02*
X122592857Y-124774819D01*
X122592857Y-124774819D02*
X122735714Y-124822438D01*
X122735714Y-124822438D02*
X122783333Y-124870057D01*
X123116667Y-124774819D02*
X123735714Y-124774819D01*
X123735714Y-124774819D02*
X123402381Y-125155771D01*
X123402381Y-125155771D02*
X123545238Y-125155771D01*
X123545238Y-125155771D02*
X123640476Y-125203390D01*
X123640476Y-125203390D02*
X123688095Y-125251009D01*
X123688095Y-125251009D02*
X123735714Y-125346247D01*
X123735714Y-125346247D02*
X123735714Y-125584342D01*
X123735714Y-125584342D02*
X123688095Y-125679580D01*
X123688095Y-125679580D02*
X123640476Y-125727200D01*
X123640476Y-125727200D02*
X123545238Y-125774819D01*
X123545238Y-125774819D02*
X123259524Y-125774819D01*
X123259524Y-125774819D02*
X123164286Y-125727200D01*
X123164286Y-125727200D02*
X123116667Y-125679580D01*
X103454819Y-95333333D02*
X104169104Y-95333333D01*
X104169104Y-95333333D02*
X104311961Y-95380952D01*
X104311961Y-95380952D02*
X104407200Y-95476190D01*
X104407200Y-95476190D02*
X104454819Y-95619047D01*
X104454819Y-95619047D02*
X104454819Y-95714285D01*
X104454819Y-94333333D02*
X104454819Y-94904761D01*
X104454819Y-94619047D02*
X103454819Y-94619047D01*
X103454819Y-94619047D02*
X103597676Y-94714285D01*
X103597676Y-94714285D02*
X103692914Y-94809523D01*
X103692914Y-94809523D02*
X103740533Y-94904761D01*
X113416667Y-102907200D02*
X113559524Y-102954819D01*
X113559524Y-102954819D02*
X113797619Y-102954819D01*
X113797619Y-102954819D02*
X113892857Y-102907200D01*
X113892857Y-102907200D02*
X113940476Y-102859580D01*
X113940476Y-102859580D02*
X113988095Y-102764342D01*
X113988095Y-102764342D02*
X113988095Y-102669104D01*
X113988095Y-102669104D02*
X113940476Y-102573866D01*
X113940476Y-102573866D02*
X113892857Y-102526247D01*
X113892857Y-102526247D02*
X113797619Y-102478628D01*
X113797619Y-102478628D02*
X113607143Y-102431009D01*
X113607143Y-102431009D02*
X113511905Y-102383390D01*
X113511905Y-102383390D02*
X113464286Y-102335771D01*
X113464286Y-102335771D02*
X113416667Y-102240533D01*
X113416667Y-102240533D02*
X113416667Y-102145295D01*
X113416667Y-102145295D02*
X113464286Y-102050057D01*
X113464286Y-102050057D02*
X113511905Y-102002438D01*
X113511905Y-102002438D02*
X113607143Y-101954819D01*
X113607143Y-101954819D02*
X113845238Y-101954819D01*
X113845238Y-101954819D02*
X113988095Y-102002438D01*
X114321429Y-101954819D02*
X114559524Y-102954819D01*
X114559524Y-102954819D02*
X114750000Y-102240533D01*
X114750000Y-102240533D02*
X114940476Y-102954819D01*
X114940476Y-102954819D02*
X115178572Y-101954819D01*
X116083333Y-102954819D02*
X115511905Y-102954819D01*
X115797619Y-102954819D02*
X115797619Y-101954819D01*
X115797619Y-101954819D02*
X115702381Y-102097676D01*
X115702381Y-102097676D02*
X115607143Y-102192914D01*
X115607143Y-102192914D02*
X115511905Y-102240533D01*
X104674819Y-56333333D02*
X105389104Y-56333333D01*
X105389104Y-56333333D02*
X105531961Y-56380952D01*
X105531961Y-56380952D02*
X105627200Y-56476190D01*
X105627200Y-56476190D02*
X105674819Y-56619047D01*
X105674819Y-56619047D02*
X105674819Y-56714285D01*
X104770057Y-55904761D02*
X104722438Y-55857142D01*
X104722438Y-55857142D02*
X104674819Y-55761904D01*
X104674819Y-55761904D02*
X104674819Y-55523809D01*
X104674819Y-55523809D02*
X104722438Y-55428571D01*
X104722438Y-55428571D02*
X104770057Y-55380952D01*
X104770057Y-55380952D02*
X104865295Y-55333333D01*
X104865295Y-55333333D02*
X104960533Y-55333333D01*
X104960533Y-55333333D02*
X105103390Y-55380952D01*
X105103390Y-55380952D02*
X105674819Y-55952380D01*
X105674819Y-55952380D02*
X105674819Y-55333333D01*
X123745833Y-117804819D02*
X123412500Y-117328628D01*
X123174405Y-117804819D02*
X123174405Y-116804819D01*
X123174405Y-116804819D02*
X123555357Y-116804819D01*
X123555357Y-116804819D02*
X123650595Y-116852438D01*
X123650595Y-116852438D02*
X123698214Y-116900057D01*
X123698214Y-116900057D02*
X123745833Y-116995295D01*
X123745833Y-116995295D02*
X123745833Y-117138152D01*
X123745833Y-117138152D02*
X123698214Y-117233390D01*
X123698214Y-117233390D02*
X123650595Y-117281009D01*
X123650595Y-117281009D02*
X123555357Y-117328628D01*
X123555357Y-117328628D02*
X123174405Y-117328628D01*
X124698214Y-117804819D02*
X124126786Y-117804819D01*
X124412500Y-117804819D02*
X124412500Y-116804819D01*
X124412500Y-116804819D02*
X124317262Y-116947676D01*
X124317262Y-116947676D02*
X124222024Y-117042914D01*
X124222024Y-117042914D02*
X124126786Y-117090533D01*
X115783333Y-126679580D02*
X115735714Y-126727200D01*
X115735714Y-126727200D02*
X115592857Y-126774819D01*
X115592857Y-126774819D02*
X115497619Y-126774819D01*
X115497619Y-126774819D02*
X115354762Y-126727200D01*
X115354762Y-126727200D02*
X115259524Y-126631961D01*
X115259524Y-126631961D02*
X115211905Y-126536723D01*
X115211905Y-126536723D02*
X115164286Y-126346247D01*
X115164286Y-126346247D02*
X115164286Y-126203390D01*
X115164286Y-126203390D02*
X115211905Y-126012914D01*
X115211905Y-126012914D02*
X115259524Y-125917676D01*
X115259524Y-125917676D02*
X115354762Y-125822438D01*
X115354762Y-125822438D02*
X115497619Y-125774819D01*
X115497619Y-125774819D02*
X115592857Y-125774819D01*
X115592857Y-125774819D02*
X115735714Y-125822438D01*
X115735714Y-125822438D02*
X115783333Y-125870057D01*
X116164286Y-125870057D02*
X116211905Y-125822438D01*
X116211905Y-125822438D02*
X116307143Y-125774819D01*
X116307143Y-125774819D02*
X116545238Y-125774819D01*
X116545238Y-125774819D02*
X116640476Y-125822438D01*
X116640476Y-125822438D02*
X116688095Y-125870057D01*
X116688095Y-125870057D02*
X116735714Y-125965295D01*
X116735714Y-125965295D02*
X116735714Y-126060533D01*
X116735714Y-126060533D02*
X116688095Y-126203390D01*
X116688095Y-126203390D02*
X116116667Y-126774819D01*
X116116667Y-126774819D02*
X116735714Y-126774819D01*
X131883333Y-125679580D02*
X131835714Y-125727200D01*
X131835714Y-125727200D02*
X131692857Y-125774819D01*
X131692857Y-125774819D02*
X131597619Y-125774819D01*
X131597619Y-125774819D02*
X131454762Y-125727200D01*
X131454762Y-125727200D02*
X131359524Y-125631961D01*
X131359524Y-125631961D02*
X131311905Y-125536723D01*
X131311905Y-125536723D02*
X131264286Y-125346247D01*
X131264286Y-125346247D02*
X131264286Y-125203390D01*
X131264286Y-125203390D02*
X131311905Y-125012914D01*
X131311905Y-125012914D02*
X131359524Y-124917676D01*
X131359524Y-124917676D02*
X131454762Y-124822438D01*
X131454762Y-124822438D02*
X131597619Y-124774819D01*
X131597619Y-124774819D02*
X131692857Y-124774819D01*
X131692857Y-124774819D02*
X131835714Y-124822438D01*
X131835714Y-124822438D02*
X131883333Y-124870057D01*
X132740476Y-125108152D02*
X132740476Y-125774819D01*
X132502381Y-124727200D02*
X132264286Y-125441485D01*
X132264286Y-125441485D02*
X132883333Y-125441485D01*
X107783333Y-126679580D02*
X107735714Y-126727200D01*
X107735714Y-126727200D02*
X107592857Y-126774819D01*
X107592857Y-126774819D02*
X107497619Y-126774819D01*
X107497619Y-126774819D02*
X107354762Y-126727200D01*
X107354762Y-126727200D02*
X107259524Y-126631961D01*
X107259524Y-126631961D02*
X107211905Y-126536723D01*
X107211905Y-126536723D02*
X107164286Y-126346247D01*
X107164286Y-126346247D02*
X107164286Y-126203390D01*
X107164286Y-126203390D02*
X107211905Y-126012914D01*
X107211905Y-126012914D02*
X107259524Y-125917676D01*
X107259524Y-125917676D02*
X107354762Y-125822438D01*
X107354762Y-125822438D02*
X107497619Y-125774819D01*
X107497619Y-125774819D02*
X107592857Y-125774819D01*
X107592857Y-125774819D02*
X107735714Y-125822438D01*
X107735714Y-125822438D02*
X107783333Y-125870057D01*
X108735714Y-126774819D02*
X108164286Y-126774819D01*
X108450000Y-126774819D02*
X108450000Y-125774819D01*
X108450000Y-125774819D02*
X108354762Y-125917676D01*
X108354762Y-125917676D02*
X108259524Y-126012914D01*
X108259524Y-126012914D02*
X108164286Y-126060533D01*
X139621905Y-117804819D02*
X139621905Y-116804819D01*
X139621905Y-116804819D02*
X139860000Y-116804819D01*
X139860000Y-116804819D02*
X140002857Y-116852438D01*
X140002857Y-116852438D02*
X140098095Y-116947676D01*
X140098095Y-116947676D02*
X140145714Y-117042914D01*
X140145714Y-117042914D02*
X140193333Y-117233390D01*
X140193333Y-117233390D02*
X140193333Y-117376247D01*
X140193333Y-117376247D02*
X140145714Y-117566723D01*
X140145714Y-117566723D02*
X140098095Y-117661961D01*
X140098095Y-117661961D02*
X140002857Y-117757200D01*
X140002857Y-117757200D02*
X139860000Y-117804819D01*
X139860000Y-117804819D02*
X139621905Y-117804819D01*
X141145714Y-117804819D02*
X140574286Y-117804819D01*
X140860000Y-117804819D02*
X140860000Y-116804819D01*
X140860000Y-116804819D02*
X140764762Y-116947676D01*
X140764762Y-116947676D02*
X140669524Y-117042914D01*
X140669524Y-117042914D02*
X140574286Y-117090533D01*
X104249104Y-86174285D02*
X104249104Y-85698095D01*
X104534819Y-86269523D02*
X103534819Y-85936190D01*
X103534819Y-85936190D02*
X104534819Y-85602857D01*
X104534819Y-84745714D02*
X104534819Y-85317142D01*
X104534819Y-85031428D02*
X103534819Y-85031428D01*
X103534819Y-85031428D02*
X103677676Y-85126666D01*
X103677676Y-85126666D02*
X103772914Y-85221904D01*
X103772914Y-85221904D02*
X103820533Y-85317142D01*
X133789104Y-88554285D02*
X133789104Y-88078095D01*
X134074819Y-88649523D02*
X133074819Y-88316190D01*
X133074819Y-88316190D02*
X134074819Y-87982857D01*
X133170057Y-87697142D02*
X133122438Y-87649523D01*
X133122438Y-87649523D02*
X133074819Y-87554285D01*
X133074819Y-87554285D02*
X133074819Y-87316190D01*
X133074819Y-87316190D02*
X133122438Y-87220952D01*
X133122438Y-87220952D02*
X133170057Y-87173333D01*
X133170057Y-87173333D02*
X133265295Y-87125714D01*
X133265295Y-87125714D02*
X133360533Y-87125714D01*
X133360533Y-87125714D02*
X133503390Y-87173333D01*
X133503390Y-87173333D02*
X134074819Y-87744761D01*
X134074819Y-87744761D02*
X134074819Y-87125714D01*
X148238095Y-102454819D02*
X148238095Y-103264342D01*
X148238095Y-103264342D02*
X148285714Y-103359580D01*
X148285714Y-103359580D02*
X148333333Y-103407200D01*
X148333333Y-103407200D02*
X148428571Y-103454819D01*
X148428571Y-103454819D02*
X148619047Y-103454819D01*
X148619047Y-103454819D02*
X148714285Y-103407200D01*
X148714285Y-103407200D02*
X148761904Y-103359580D01*
X148761904Y-103359580D02*
X148809523Y-103264342D01*
X148809523Y-103264342D02*
X148809523Y-102454819D01*
X149190476Y-102454819D02*
X149809523Y-102454819D01*
X149809523Y-102454819D02*
X149476190Y-102835771D01*
X149476190Y-102835771D02*
X149619047Y-102835771D01*
X149619047Y-102835771D02*
X149714285Y-102883390D01*
X149714285Y-102883390D02*
X149761904Y-102931009D01*
X149761904Y-102931009D02*
X149809523Y-103026247D01*
X149809523Y-103026247D02*
X149809523Y-103264342D01*
X149809523Y-103264342D02*
X149761904Y-103359580D01*
X149761904Y-103359580D02*
X149714285Y-103407200D01*
X149714285Y-103407200D02*
X149619047Y-103454819D01*
X149619047Y-103454819D02*
X149333333Y-103454819D01*
X149333333Y-103454819D02*
X149238095Y-103407200D01*
X149238095Y-103407200D02*
X149190476Y-103359580D01*
X130745833Y-117804819D02*
X130412500Y-117328628D01*
X130174405Y-117804819D02*
X130174405Y-116804819D01*
X130174405Y-116804819D02*
X130555357Y-116804819D01*
X130555357Y-116804819D02*
X130650595Y-116852438D01*
X130650595Y-116852438D02*
X130698214Y-116900057D01*
X130698214Y-116900057D02*
X130745833Y-116995295D01*
X130745833Y-116995295D02*
X130745833Y-117138152D01*
X130745833Y-117138152D02*
X130698214Y-117233390D01*
X130698214Y-117233390D02*
X130650595Y-117281009D01*
X130650595Y-117281009D02*
X130555357Y-117328628D01*
X130555357Y-117328628D02*
X130174405Y-117328628D01*
X131126786Y-116900057D02*
X131174405Y-116852438D01*
X131174405Y-116852438D02*
X131269643Y-116804819D01*
X131269643Y-116804819D02*
X131507738Y-116804819D01*
X131507738Y-116804819D02*
X131602976Y-116852438D01*
X131602976Y-116852438D02*
X131650595Y-116900057D01*
X131650595Y-116900057D02*
X131698214Y-116995295D01*
X131698214Y-116995295D02*
X131698214Y-117090533D01*
X131698214Y-117090533D02*
X131650595Y-117233390D01*
X131650595Y-117233390D02*
X131079167Y-117804819D01*
X131079167Y-117804819D02*
X131698214Y-117804819D01*
X147883333Y-125679580D02*
X147835714Y-125727200D01*
X147835714Y-125727200D02*
X147692857Y-125774819D01*
X147692857Y-125774819D02*
X147597619Y-125774819D01*
X147597619Y-125774819D02*
X147454762Y-125727200D01*
X147454762Y-125727200D02*
X147359524Y-125631961D01*
X147359524Y-125631961D02*
X147311905Y-125536723D01*
X147311905Y-125536723D02*
X147264286Y-125346247D01*
X147264286Y-125346247D02*
X147264286Y-125203390D01*
X147264286Y-125203390D02*
X147311905Y-125012914D01*
X147311905Y-125012914D02*
X147359524Y-124917676D01*
X147359524Y-124917676D02*
X147454762Y-124822438D01*
X147454762Y-124822438D02*
X147597619Y-124774819D01*
X147597619Y-124774819D02*
X147692857Y-124774819D01*
X147692857Y-124774819D02*
X147835714Y-124822438D01*
X147835714Y-124822438D02*
X147883333Y-124870057D01*
X148740476Y-124774819D02*
X148550000Y-124774819D01*
X148550000Y-124774819D02*
X148454762Y-124822438D01*
X148454762Y-124822438D02*
X148407143Y-124870057D01*
X148407143Y-124870057D02*
X148311905Y-125012914D01*
X148311905Y-125012914D02*
X148264286Y-125203390D01*
X148264286Y-125203390D02*
X148264286Y-125584342D01*
X148264286Y-125584342D02*
X148311905Y-125679580D01*
X148311905Y-125679580D02*
X148359524Y-125727200D01*
X148359524Y-125727200D02*
X148454762Y-125774819D01*
X148454762Y-125774819D02*
X148645238Y-125774819D01*
X148645238Y-125774819D02*
X148740476Y-125727200D01*
X148740476Y-125727200D02*
X148788095Y-125679580D01*
X148788095Y-125679580D02*
X148835714Y-125584342D01*
X148835714Y-125584342D02*
X148835714Y-125346247D01*
X148835714Y-125346247D02*
X148788095Y-125251009D01*
X148788095Y-125251009D02*
X148740476Y-125203390D01*
X148740476Y-125203390D02*
X148645238Y-125155771D01*
X148645238Y-125155771D02*
X148454762Y-125155771D01*
X148454762Y-125155771D02*
X148359524Y-125203390D01*
X148359524Y-125203390D02*
X148311905Y-125251009D01*
X148311905Y-125251009D02*
X148264286Y-125346247D01*
X155883333Y-125679580D02*
X155835714Y-125727200D01*
X155835714Y-125727200D02*
X155692857Y-125774819D01*
X155692857Y-125774819D02*
X155597619Y-125774819D01*
X155597619Y-125774819D02*
X155454762Y-125727200D01*
X155454762Y-125727200D02*
X155359524Y-125631961D01*
X155359524Y-125631961D02*
X155311905Y-125536723D01*
X155311905Y-125536723D02*
X155264286Y-125346247D01*
X155264286Y-125346247D02*
X155264286Y-125203390D01*
X155264286Y-125203390D02*
X155311905Y-125012914D01*
X155311905Y-125012914D02*
X155359524Y-124917676D01*
X155359524Y-124917676D02*
X155454762Y-124822438D01*
X155454762Y-124822438D02*
X155597619Y-124774819D01*
X155597619Y-124774819D02*
X155692857Y-124774819D01*
X155692857Y-124774819D02*
X155835714Y-124822438D01*
X155835714Y-124822438D02*
X155883333Y-124870057D01*
X156216667Y-124774819D02*
X156883333Y-124774819D01*
X156883333Y-124774819D02*
X156454762Y-125774819D01*
X104914819Y-61333333D02*
X105629104Y-61333333D01*
X105629104Y-61333333D02*
X105771961Y-61380952D01*
X105771961Y-61380952D02*
X105867200Y-61476190D01*
X105867200Y-61476190D02*
X105914819Y-61619047D01*
X105914819Y-61619047D02*
X105914819Y-61714285D01*
X104914819Y-60952380D02*
X104914819Y-60333333D01*
X104914819Y-60333333D02*
X105295771Y-60666666D01*
X105295771Y-60666666D02*
X105295771Y-60523809D01*
X105295771Y-60523809D02*
X105343390Y-60428571D01*
X105343390Y-60428571D02*
X105391009Y-60380952D01*
X105391009Y-60380952D02*
X105486247Y-60333333D01*
X105486247Y-60333333D02*
X105724342Y-60333333D01*
X105724342Y-60333333D02*
X105819580Y-60380952D01*
X105819580Y-60380952D02*
X105867200Y-60428571D01*
X105867200Y-60428571D02*
X105914819Y-60523809D01*
X105914819Y-60523809D02*
X105914819Y-60809523D01*
X105914819Y-60809523D02*
X105867200Y-60904761D01*
X105867200Y-60904761D02*
X105819580Y-60952380D01*
%TO.C,U2*%
D11*
X137460000Y-98380000D02*
X137460000Y-97000000D01*
X138840000Y-98380000D02*
X137460000Y-98380000D01*
X140110000Y-95620000D02*
X152920000Y-95620000D01*
X140110000Y-98380000D02*
X140110000Y-95620000D01*
X140110000Y-98380000D02*
X152920000Y-98380000D01*
X152920000Y-98380000D02*
X152920000Y-95620000D01*
%TO.C,C5*%
X139738748Y-126265000D02*
X140261252Y-126265000D01*
X139738748Y-127735000D02*
X140261252Y-127735000D01*
%TO.C,C3*%
X122688748Y-126265000D02*
X123211252Y-126265000D01*
X122688748Y-127735000D02*
X123211252Y-127735000D01*
%TO.C,J1*%
X105000000Y-96380000D02*
X105000000Y-95000000D01*
X106380000Y-96380000D02*
X105000000Y-96380000D01*
X107650000Y-93620000D02*
X120460000Y-93620000D01*
X107650000Y-96380000D02*
X107650000Y-93620000D01*
X107650000Y-96380000D02*
X120460000Y-96380000D01*
X120460000Y-96380000D02*
X120460000Y-93620000D01*
%TO.C,SW1*%
X111250000Y-106000000D02*
X111250000Y-107500000D01*
X112500000Y-110000000D02*
X117000000Y-110000000D01*
X117000000Y-103500000D02*
X112500000Y-103500000D01*
X118250000Y-107500000D02*
X118250000Y-106000000D01*
%TO.C,J2*%
X106220000Y-57380000D02*
X106220000Y-56000000D01*
X107600000Y-57380000D02*
X106220000Y-57380000D01*
X108870000Y-54620000D02*
X162320000Y-54620000D01*
X108870000Y-57380000D02*
X108870000Y-54620000D01*
X108870000Y-57380000D02*
X162320000Y-57380000D01*
X162320000Y-57380000D02*
X162320000Y-54620000D01*
%TO.C,R1*%
X123685436Y-118265000D02*
X124139564Y-118265000D01*
X123685436Y-119735000D02*
X124139564Y-119735000D01*
%TO.C,C2*%
X115688748Y-127265000D02*
X116211252Y-127265000D01*
X115688748Y-128735000D02*
X116211252Y-128735000D01*
%TO.C,C4*%
X131788748Y-126265000D02*
X132311252Y-126265000D01*
X131788748Y-127735000D02*
X132311252Y-127735000D01*
%TO.C,C1*%
X107688748Y-127265000D02*
X108211252Y-127265000D01*
X107688748Y-128735000D02*
X108211252Y-128735000D01*
%TO.C,D1*%
X138675000Y-118040000D02*
X138675000Y-119960000D01*
X138675000Y-119960000D02*
X141360000Y-119960000D01*
X141360000Y-118040000D02*
X138675000Y-118040000D01*
%TO.C,A1*%
X105080000Y-86840000D02*
X105080000Y-85460000D01*
X106460000Y-86840000D02*
X105080000Y-86840000D01*
X107730000Y-84080000D02*
X120540000Y-84080000D01*
X107730000Y-86840000D02*
X107730000Y-84080000D01*
X107730000Y-86840000D02*
X120540000Y-86840000D01*
X120540000Y-86840000D02*
X120540000Y-84080000D01*
%TO.C,A2*%
X134620000Y-89220000D02*
X134620000Y-87840000D01*
X136000000Y-89220000D02*
X134620000Y-89220000D01*
X137270000Y-86460000D02*
X150080000Y-86460000D01*
X137270000Y-89220000D02*
X137270000Y-86460000D01*
X137270000Y-89220000D02*
X150080000Y-89220000D01*
X150080000Y-89220000D02*
X150080000Y-86460000D01*
%TO.C,U3*%
X147620000Y-104000000D02*
X149000000Y-104000000D01*
X147620000Y-105380000D02*
X147620000Y-104000000D01*
X147620000Y-106650000D02*
X147620000Y-114380000D01*
X147620000Y-106650000D02*
X150380000Y-106650000D01*
X147620000Y-114380000D02*
X150380000Y-114380000D01*
X150380000Y-106650000D02*
X150380000Y-114380000D01*
%TO.C,R2*%
X130685436Y-118265000D02*
X131139564Y-118265000D01*
X130685436Y-119735000D02*
X131139564Y-119735000D01*
%TO.C,C6*%
X147788748Y-126265000D02*
X148311252Y-126265000D01*
X147788748Y-127735000D02*
X148311252Y-127735000D01*
%TO.C,C7*%
X155788748Y-126265000D02*
X156311252Y-126265000D01*
X155788748Y-127735000D02*
X156311252Y-127735000D01*
%TO.C,J3*%
X106460000Y-62380000D02*
X106460000Y-61000000D01*
X107840000Y-62380000D02*
X106460000Y-62380000D01*
X109110000Y-59620000D02*
X162560000Y-59620000D01*
X109110000Y-62380000D02*
X109110000Y-59620000D01*
X109110000Y-62380000D02*
X162560000Y-62380000D01*
X162560000Y-62380000D02*
X162560000Y-59620000D01*
%TD*%
M02*
