%TF.GenerationSoftware,KiCad,Pcbnew,10.0.4*%
%TF.CreationDate,2026-07-22T20:18:15+02:00*%
%TF.ProjectId,nks_gnd2caras,6e6b735f-676e-4643-9263-617261732e6b,rev?*%
%TF.SameCoordinates,Original*%
%TF.FileFunction,Copper,L1,Top*%
%TF.FilePolarity,Positive*%
%FSLAX46Y46*%
G04 Gerber Fmt 4.6, Leading zero omitted, Abs format (unit mm)*
G04 Created by KiCad (PCBNEW 10.0.4) date 2026-07-22 20:18:15*
%MOMM*%
%LPD*%
G01*
G04 APERTURE LIST*
G04 Aperture macros list*
%AMRoundRect*
0 Rectangle with rounded corners*
0 $1 Rounding radius*
0 $2 $3 $4 $5 $6 $7 $8 $9 X,Y pos of 4 corners*
0 Add a 4 corners polygon primitive as box body*
4,1,4,$2,$3,$4,$5,$6,$7,$8,$9,$2,$3,0*
0 Add four circle primitives for the rounded corners*
1,1,$1+$1,$2,$3*
1,1,$1+$1,$4,$5*
1,1,$1+$1,$6,$7*
1,1,$1+$1,$8,$9*
0 Add four rect primitives between the rounded corners*
20,1,$1+$1,$2,$3,$4,$5,0*
20,1,$1+$1,$4,$5,$6,$7,0*
20,1,$1+$1,$6,$7,$8,$9,0*
20,1,$1+$1,$8,$9,$2,$3,0*%
G04 Aperture macros list end*
%TA.AperFunction,ComponentPad*%
%ADD10R,1.700000X1.700000*%
%TD*%
%TA.AperFunction,ComponentPad*%
%ADD11C,1.700000*%
%TD*%
%TA.AperFunction,SMDPad,CuDef*%
%ADD12RoundRect,0.250000X-0.250000X-0.475000X0.250000X-0.475000X0.250000X0.475000X-0.250000X0.475000X0*%
%TD*%
%TA.AperFunction,ComponentPad*%
%ADD13C,2.000000*%
%TD*%
%TA.AperFunction,SMDPad,CuDef*%
%ADD14RoundRect,0.250000X-0.262500X-0.450000X0.262500X-0.450000X0.262500X0.450000X-0.262500X0.450000X0*%
%TD*%
%TA.AperFunction,SMDPad,CuDef*%
%ADD15RoundRect,0.243750X-0.243750X-0.456250X0.243750X-0.456250X0.243750X0.456250X-0.243750X0.456250X0*%
%TD*%
%TA.AperFunction,ViaPad*%
%ADD16C,0.600000*%
%TD*%
%TA.AperFunction,Conductor*%
%ADD17C,0.200000*%
%TD*%
G04 APERTURE END LIST*
D10*
%TO.P,U2,1,VCC_1*%
%TO.N,/+3V3*%
X138840000Y-97000000D03*
D11*
%TO.P,U2,2,GND_2*%
%TO.N,/GND*%
X141380000Y-97000000D03*
%TO.P,U2,3,SCL_3*%
%TO.N,/I2C_SCL*%
X143920000Y-97000000D03*
%TO.P,U2,4,SDA_4*%
%TO.N,/I2C_SDA*%
X146460000Y-97000000D03*
%TO.P,U2,5*%
%TO.N,N/C*%
X149000000Y-97000000D03*
%TO.P,U2,6*%
X151540000Y-97000000D03*
%TD*%
D12*
%TO.P,C5,1*%
%TO.N,/+3V3*%
X139050000Y-127000000D03*
%TO.P,C5,2*%
%TO.N,/GND*%
X140950000Y-127000000D03*
%TD*%
%TO.P,C3,1*%
%TO.N,/+3V3*%
X122000000Y-127000000D03*
%TO.P,C3,2*%
%TO.N,/GND*%
X123900000Y-127000000D03*
%TD*%
D10*
%TO.P,J1,1,VCC_1*%
%TO.N,/+3V3*%
X106380000Y-95000000D03*
D11*
%TO.P,J1,2,GND_2*%
%TO.N,/GND*%
X108920000Y-95000000D03*
%TO.P,J1,3,CS_3*%
%TO.N,/SD_CS*%
X111460000Y-95000000D03*
%TO.P,J1,4,SCK_4*%
%TO.N,/SD_SCLK*%
X114000000Y-95000000D03*
%TO.P,J1,5,MOSI_5*%
%TO.N,/SD_MOSI*%
X116540000Y-95000000D03*
%TO.P,J1,6,MISO_6*%
%TO.N,/SD_MISO*%
X119080000Y-95000000D03*
%TD*%
D13*
%TO.P,SW1,1*%
%TO.N,/BTN*%
X111500000Y-104500000D03*
X118000000Y-104500000D03*
%TO.P,SW1,2*%
%TO.N,/GND*%
X111500000Y-109000000D03*
X118000000Y-109000000D03*
%TD*%
D10*
%TO.P,J2,1,3V3_1*%
%TO.N,/+3V3*%
X107600000Y-56000000D03*
D11*
%TO.P,J2,2,3V3_2*%
X110140000Y-56000000D03*
%TO.P,J2,3*%
%TO.N,N/C*%
X112680000Y-56000000D03*
%TO.P,J2,4*%
X115220000Y-56000000D03*
%TO.P,J2,5*%
X117760000Y-56000000D03*
%TO.P,J2,6*%
X120300000Y-56000000D03*
%TO.P,J2,7*%
X122840000Y-56000000D03*
%TO.P,J2,8,IO15_8*%
%TO.N,/SD_MOSI*%
X125380000Y-56000000D03*
%TO.P,J2,9,IO16_9*%
%TO.N,/SD_MISO*%
X127920000Y-56000000D03*
%TO.P,J2,10,IO17_10*%
%TO.N,/SD_SCLK*%
X130460000Y-56000000D03*
%TO.P,J2,11,IO18_11*%
%TO.N,/SD_CS*%
X133000000Y-56000000D03*
%TO.P,J2,12,IO8_12*%
%TO.N,/I2C_SDA*%
X135540000Y-56000000D03*
%TO.P,J2,13*%
%TO.N,N/C*%
X138080000Y-56000000D03*
%TO.P,J2,14*%
X140620000Y-56000000D03*
%TO.P,J2,15,IO9_15*%
%TO.N,/I2C_SCL*%
X143160000Y-56000000D03*
%TO.P,J2,16*%
%TO.N,N/C*%
X145700000Y-56000000D03*
%TO.P,J2,17,IO11_17*%
%TO.N,/I2S_WS*%
X148240000Y-56000000D03*
%TO.P,J2,18,IO12_18*%
%TO.N,/I2S_SCK*%
X150780000Y-56000000D03*
%TO.P,J2,19,IO13_19*%
%TO.N,/I2S_SD*%
X153320000Y-56000000D03*
%TO.P,J2,20,IO14_20*%
%TO.N,/BTN*%
X155860000Y-56000000D03*
%TO.P,J2,21*%
%TO.N,N/C*%
X158400000Y-56000000D03*
%TO.P,J2,22,GND_22*%
%TO.N,/GND*%
X160940000Y-56000000D03*
%TD*%
D14*
%TO.P,R1,1*%
%TO.N,/LED_STAT*%
X123000000Y-119000000D03*
%TO.P,R1,2*%
%TO.N,/LED_A*%
X124825000Y-119000000D03*
%TD*%
D12*
%TO.P,C2,1*%
%TO.N,/+3V3*%
X115000000Y-128000000D03*
%TO.P,C2,2*%
%TO.N,/GND*%
X116900000Y-128000000D03*
%TD*%
%TO.P,C4,1*%
%TO.N,/+3V3*%
X131100000Y-127000000D03*
%TO.P,C4,2*%
%TO.N,/GND*%
X133000000Y-127000000D03*
%TD*%
%TO.P,C1,1*%
%TO.N,/+3V3*%
X107000000Y-128000000D03*
%TO.P,C1,2*%
%TO.N,/GND*%
X108900000Y-128000000D03*
%TD*%
D15*
%TO.P,D1,1,A_1*%
%TO.N,/LED_A*%
X139422500Y-119000000D03*
%TO.P,D1,2,K_2*%
%TO.N,/GND*%
X141297500Y-119000000D03*
%TD*%
D10*
%TO.P,A1,1,VDD_1*%
%TO.N,/+3V3*%
X106460000Y-85460000D03*
D11*
%TO.P,A1,2,GND_2*%
%TO.N,/GND*%
X109000000Y-85460000D03*
%TO.P,A1,3,SD_3*%
%TO.N,/I2S_SD*%
X111540000Y-85460000D03*
%TO.P,A1,4,SCK_4*%
%TO.N,/I2S_SCK*%
X114080000Y-85460000D03*
%TO.P,A1,5,WS_5*%
%TO.N,/I2S_WS*%
X116620000Y-85460000D03*
%TO.P,A1,6,L/R_6*%
%TO.N,/GND*%
X119160000Y-85460000D03*
%TD*%
D10*
%TO.P,A2,1,VDD_1*%
%TO.N,/+3V3*%
X136000000Y-87840000D03*
D11*
%TO.P,A2,2,GND_2*%
%TO.N,/GND*%
X138540000Y-87840000D03*
%TO.P,A2,3,SD_3*%
%TO.N,/I2S_SD*%
X141080000Y-87840000D03*
%TO.P,A2,4,SCK_4*%
%TO.N,/I2S_SCK*%
X143620000Y-87840000D03*
%TO.P,A2,5,WS_5*%
%TO.N,/I2S_WS*%
X146160000Y-87840000D03*
%TO.P,A2,6,L/R_6*%
%TO.N,/+3V3*%
X148700000Y-87840000D03*
%TD*%
D10*
%TO.P,U3,1,VIN_1*%
%TO.N,/+3V3*%
X149000000Y-105380000D03*
D11*
%TO.P,U3,2,GND_2*%
%TO.N,/GND*%
X149000000Y-107920000D03*
%TO.P,U3,3,SCL_3*%
%TO.N,/I2C_SCL*%
X149000000Y-110460000D03*
%TO.P,U3,4,SDA_4*%
%TO.N,/I2C_SDA*%
X149000000Y-113000000D03*
%TD*%
D14*
%TO.P,R2,1*%
%TO.N,/+3V3*%
X130000000Y-119000000D03*
%TO.P,R2,2*%
%TO.N,/BTN*%
X131825000Y-119000000D03*
%TD*%
D12*
%TO.P,C6,1*%
%TO.N,/BTN*%
X147100000Y-127000000D03*
%TO.P,C6,2*%
%TO.N,/GND*%
X149000000Y-127000000D03*
%TD*%
%TO.P,C7,1*%
%TO.N,/+3V3*%
X155100000Y-127000000D03*
%TO.P,C7,2*%
%TO.N,/GND*%
X157000000Y-127000000D03*
%TD*%
D10*
%TO.P,J3,1,GND_1*%
%TO.N,/GND*%
X107840000Y-61000000D03*
D11*
%TO.P,J3,2*%
%TO.N,N/C*%
X110380000Y-61000000D03*
%TO.P,J3,3*%
X112920000Y-61000000D03*
%TO.P,J3,4*%
X115460000Y-61000000D03*
%TO.P,J3,5*%
X118000000Y-61000000D03*
%TO.P,J3,6*%
X120540000Y-61000000D03*
%TO.P,J3,7*%
X123080000Y-61000000D03*
%TO.P,J3,8*%
X125620000Y-61000000D03*
%TO.P,J3,9*%
X128160000Y-61000000D03*
%TO.P,J3,10*%
X130700000Y-61000000D03*
%TO.P,J3,11*%
X133240000Y-61000000D03*
%TO.P,J3,12*%
X135780000Y-61000000D03*
%TO.P,J3,13*%
X138320000Y-61000000D03*
%TO.P,J3,14*%
X140860000Y-61000000D03*
%TO.P,J3,15*%
X143400000Y-61000000D03*
%TO.P,J3,16*%
X145940000Y-61000000D03*
%TO.P,J3,17*%
X148480000Y-61000000D03*
%TO.P,J3,18,IO21_18*%
%TO.N,/LED_STAT*%
X151020000Y-61000000D03*
%TO.P,J3,19*%
%TO.N,N/C*%
X153560000Y-61000000D03*
%TO.P,J3,20*%
X156100000Y-61000000D03*
%TO.P,J3,21,GND_21*%
%TO.N,/GND*%
X158640000Y-61000000D03*
%TO.P,J3,22,GND_22*%
X161180000Y-61000000D03*
%TD*%
D16*
%TO.N,/SD_MISO*%
X125059600Y-88366900D03*
X130661700Y-62694000D03*
%TO.N,/LED_STAT*%
X150968800Y-82053200D03*
X123377300Y-114457800D03*
%TD*%
%TO.N,/GND*%
D17*
X116900000Y-128000000D02*
X117400000Y-128500000D01*
X117400000Y-128500000D02*
X122400000Y-128500000D01*
X122400000Y-128500000D02*
X123900000Y-127000000D01*
X142375000Y-128425000D02*
X140950000Y-127000000D01*
X108900000Y-128000000D02*
X109925000Y-126975000D01*
X109925000Y-126975000D02*
X115875000Y-126975000D01*
X115875000Y-126975000D02*
X116900000Y-128000000D01*
X141298000Y-119000000D02*
X148300000Y-126002000D01*
X148300000Y-126002000D02*
X148300000Y-127875000D01*
X148300000Y-127875000D02*
X147750000Y-128425000D01*
X147750000Y-128425000D02*
X142375000Y-128425000D01*
X133000000Y-127000000D02*
X134025000Y-125975000D01*
X134025000Y-125975000D02*
X139925000Y-125975000D01*
X139925000Y-125975000D02*
X140950000Y-127000000D01*
X123900000Y-127000000D02*
X124925000Y-125975000D01*
X124925000Y-125975000D02*
X131975000Y-125975000D01*
X131975000Y-125975000D02*
X133000000Y-127000000D01*
X149000000Y-127000000D02*
X150025000Y-128025000D01*
X150025000Y-128025000D02*
X155975000Y-128025000D01*
X155975000Y-128025000D02*
X157000000Y-127000000D01*
X155975000Y-128025000D02*
X157000000Y-127000000D01*
X148300000Y-127875000D02*
X147750000Y-128425000D01*
X124925000Y-125975000D02*
X131975000Y-125975000D01*
X122400000Y-128500000D02*
X123900000Y-127000000D01*
X109925000Y-126975000D02*
X115875000Y-126975000D01*
X131975000Y-125975000D02*
X133000000Y-127000000D01*
X134025000Y-125975000D02*
X139925000Y-125975000D01*
X150025000Y-128025000D02*
X155975000Y-128025000D01*
X148300000Y-126002000D02*
X148300000Y-127875000D01*
X142375000Y-128425000D02*
X148300000Y-128425000D01*
X148300000Y-128425000D02*
X149000000Y-127725000D01*
X149000000Y-127725000D02*
X149000000Y-127000000D01*
X139925000Y-125975000D02*
X140950000Y-127000000D01*
X147750000Y-128425000D02*
X142375000Y-128425000D01*
X148300000Y-128425000D02*
X149000000Y-127725000D01*
X108900000Y-128000000D02*
X109925000Y-126975000D01*
X149000000Y-107920000D02*
X149000000Y-108834000D01*
X149000000Y-127725000D02*
X149000000Y-127000000D01*
X116900000Y-128000000D02*
X117400000Y-128500000D01*
%TO.N,/+3V3*%
X107339400Y-128015600D02*
X108798600Y-126556400D01*
X108798600Y-126556400D02*
X121556400Y-126556400D01*
X121556400Y-126556400D02*
X122000000Y-127000000D01*
X115000000Y-128000000D02*
X113915000Y-129085000D01*
X113915000Y-129085000D02*
X108408800Y-129085000D01*
X108408800Y-129085000D02*
X107339400Y-128015600D01*
X107339400Y-128015600D02*
X107015600Y-128015600D01*
X107015600Y-128015600D02*
X107000000Y-128000000D01*
X106380000Y-95000000D02*
X106380000Y-127380000D01*
X106380000Y-127380000D02*
X107000000Y-128000000D01*
X106460000Y-85460000D02*
X106380000Y-85540000D01*
X106380000Y-85540000D02*
X106380000Y-95000000D01*
X131100000Y-127000000D02*
X129071500Y-129028500D01*
X129071500Y-129028500D02*
X116028500Y-129028500D01*
X116028500Y-129028500D02*
X115000000Y-128000000D01*
X131100000Y-127000000D02*
X132131800Y-128031800D01*
X132131800Y-128031800D02*
X138018200Y-128031800D01*
X138018200Y-128031800D02*
X139050000Y-127000000D01*
X155100000Y-127000000D02*
X155100000Y-94240000D01*
X155100000Y-94240000D02*
X148700000Y-87840000D01*
X107600000Y-56000000D02*
X106460000Y-57140000D01*
X106460000Y-57140000D02*
X106460000Y-85460000D01*
X130000000Y-119000000D02*
X128955400Y-117955400D01*
X128955400Y-117955400D02*
X124321800Y-117955400D01*
X124321800Y-117955400D02*
X123912500Y-118364700D01*
X123912500Y-118364700D02*
X123912500Y-125087500D01*
X123912500Y-125087500D02*
X122000000Y-127000000D01*
%TO.N,/I2C_SCL*%
X143920000Y-97000000D02*
X143920000Y-105380000D01*
X143920000Y-105380000D02*
X149000000Y-110460000D01*
X143160000Y-56000000D02*
X142010000Y-54850000D01*
X142010000Y-54850000D02*
X135064000Y-54850000D01*
X135064000Y-54850000D02*
X134390000Y-55523700D01*
X134390000Y-55523700D02*
X134390000Y-79390000D01*
X134390000Y-79390000D02*
X142470000Y-87470000D01*
X142470000Y-87470000D02*
X142470000Y-95550000D01*
X142470000Y-95550000D02*
X143920000Y-97000000D01*
X134390000Y-55523700D02*
X134390000Y-79390000D01*
X142470000Y-95550000D02*
X143920000Y-97000000D01*
X143160000Y-56000000D02*
X142010000Y-54850000D01*
X142010000Y-54850000D02*
X135064000Y-54850000D01*
X135064000Y-54850000D02*
X134390000Y-55523700D01*
X134390000Y-79390000D02*
X142470000Y-87470000D01*
X143920000Y-97000000D02*
X143920000Y-105380000D01*
%TO.N,/I2C_SDA*%
X146460000Y-97000000D02*
X150150000Y-100690000D01*
X150150000Y-100690000D02*
X150150000Y-111850000D01*
X150150000Y-111850000D02*
X149000000Y-113000000D01*
X150150000Y-100690000D02*
X150150000Y-111850000D01*
X150150000Y-111850000D02*
X149000000Y-113000000D01*
X135540000Y-56000000D02*
X137170000Y-57630000D01*
X137170000Y-57630000D02*
X137170000Y-79763700D01*
X137170000Y-79763700D02*
X145000000Y-87593700D01*
X145000000Y-87593700D02*
X145000000Y-95540000D01*
X145000000Y-95540000D02*
X146460000Y-97000000D01*
X137170000Y-79763700D02*
X145000000Y-87593700D01*
X145000000Y-87593700D02*
X145000000Y-95540000D01*
X145000000Y-95540000D02*
X146460000Y-97000000D01*
X135540000Y-56000000D02*
X137170000Y-57630000D01*
%TO.N,/SD_MOSI*%
X125380000Y-56000000D02*
X124470000Y-56910000D01*
X124470000Y-56910000D02*
X124470000Y-68363700D01*
X124470000Y-68363700D02*
X107850000Y-84983700D01*
X107850000Y-84983700D02*
X107850000Y-86310000D01*
X107850000Y-86310000D02*
X116540000Y-95000000D01*
X125380000Y-56000000D02*
X124470000Y-56910000D01*
X124470000Y-56910000D02*
X124470000Y-68363700D01*
X107850000Y-86310000D02*
X116540000Y-95000000D01*
%TO.N,/SD_MISO*%
X130661700Y-62694000D02*
X130661700Y-82764800D01*
X130661700Y-82764800D02*
X125059600Y-88366900D01*
%TO.N,/BTN*%
X155860000Y-56000000D02*
X153510000Y-53650000D01*
X153510000Y-53650000D02*
X128644000Y-53650000D01*
X128644000Y-53650000D02*
X126770000Y-55523700D01*
X126770000Y-55523700D02*
X126770000Y-68603700D01*
X126770000Y-68603700D02*
X110390000Y-84983700D01*
X110390000Y-84983700D02*
X110390000Y-85936300D01*
X110390000Y-85936300D02*
X118304000Y-93850000D01*
X118304000Y-93850000D02*
X119556000Y-93850000D01*
X119556000Y-93850000D02*
X121000000Y-95293700D01*
X121000000Y-95293700D02*
X121000000Y-101500000D01*
X121000000Y-101500000D02*
X118000000Y-104500000D01*
X118000000Y-104500000D02*
X111500000Y-104500000D01*
X118000000Y-104500000D02*
X118000000Y-105175000D01*
X118000000Y-105175000D02*
X131825000Y-119000000D01*
X126770000Y-55523700D02*
X126770000Y-68603700D01*
X118304000Y-93850000D02*
X119556000Y-93850000D01*
X128644000Y-53650000D02*
X126770000Y-55523700D01*
X131825000Y-119000000D02*
X132825000Y-120000000D01*
X132825000Y-120000000D02*
X140100000Y-120000000D01*
X140100000Y-120000000D02*
X147100000Y-127000000D01*
X121000000Y-101500000D02*
X118000000Y-104500000D01*
X132825000Y-120000000D02*
X140100000Y-120000000D01*
X110390000Y-84983700D02*
X110390000Y-85936300D01*
X131825000Y-119000000D02*
X132825000Y-120000000D01*
X118000000Y-104500000D02*
X118000000Y-105175000D01*
X153510000Y-53650000D02*
X128644000Y-53650000D01*
X119556000Y-93850000D02*
X121000000Y-95293700D01*
X126770000Y-68603700D02*
X110390000Y-84983700D01*
X155860000Y-56000000D02*
X153510000Y-53650000D01*
X110390000Y-85936300D02*
X118304000Y-93850000D01*
%TO.N,/I2S_WS*%
X146160000Y-87840000D02*
X152170000Y-81830000D01*
X152170000Y-81830000D02*
X152170000Y-58776300D01*
X152170000Y-58776300D02*
X154470000Y-56476300D01*
X154470000Y-56476300D02*
X154470000Y-55523700D01*
X154470000Y-55523700D02*
X152996000Y-54050000D01*
X152996000Y-54050000D02*
X130784000Y-54050000D01*
X130784000Y-54050000D02*
X129310000Y-55523700D01*
X129310000Y-55523700D02*
X129310000Y-72770000D01*
X129310000Y-72770000D02*
X116620000Y-85460000D01*
X152170000Y-81830000D02*
X152170000Y-58776300D01*
X148240000Y-56000000D02*
X147330000Y-56910000D01*
X147330000Y-56910000D02*
X147330000Y-86670000D01*
X147330000Y-86670000D02*
X146160000Y-87840000D01*
X129310000Y-55523700D02*
X129310000Y-72770000D01*
X146160000Y-87840000D02*
X152170000Y-81830000D01*
X154470000Y-55523700D02*
X152996000Y-54050000D01*
X152996000Y-54050000D02*
X130784000Y-54050000D01*
X130784000Y-54050000D02*
X129310000Y-55523700D01*
X152170000Y-58776300D02*
X154470000Y-56476300D01*
X154470000Y-56476300D02*
X154470000Y-55523700D01*
X147330000Y-86670000D02*
X146160000Y-87840000D01*
X148240000Y-56000000D02*
X147330000Y-56910000D01*
%TO.N,/I2S_SCK*%
X150780000Y-56000000D02*
X150780000Y-56780000D01*
%TO.N,/I2S_SD*%
X153320000Y-56000000D02*
X151770000Y-54450000D01*
X151770000Y-54450000D02*
X132924000Y-54450000D01*
X132924000Y-54450000D02*
X131850000Y-55523700D01*
X131850000Y-55523700D02*
X131850000Y-78610000D01*
X131850000Y-78610000D02*
X141080000Y-87840000D01*
X141080000Y-87840000D02*
X139920000Y-89000000D01*
X139920000Y-89000000D02*
X115080000Y-89000000D01*
X115080000Y-89000000D02*
X111540000Y-85460000D01*
X132924000Y-54450000D02*
X131850000Y-55523700D01*
X131850000Y-55523700D02*
X131850000Y-78610000D01*
X131850000Y-78610000D02*
X141080000Y-87840000D01*
X153320000Y-56000000D02*
X151770000Y-54450000D01*
X115080000Y-89000000D02*
X111540000Y-85460000D01*
X141080000Y-87840000D02*
X139920000Y-89000000D01*
%TO.N,/LED_STAT*%
X123000000Y-119000000D02*
X123000000Y-114835100D01*
X123000000Y-114835100D02*
X123377300Y-114457800D01*
X150968800Y-82053200D02*
X151020000Y-82002000D01*
X151020000Y-82002000D02*
X151020000Y-61000000D01*
%TO.N,/LED_A*%
X124825000Y-119000000D02*
X126225000Y-120400000D01*
X126225000Y-120400000D02*
X138990000Y-120400000D01*
X138990000Y-120400000D02*
X146615000Y-128025000D01*
X146615000Y-128025000D02*
X147585000Y-128025000D01*
X147585000Y-128025000D02*
X147900000Y-127710000D01*
X147900000Y-127710000D02*
X147900000Y-126290000D01*
X147900000Y-126290000D02*
X147585000Y-125975000D01*
X147585000Y-125975000D02*
X146641000Y-125975000D01*
X146641000Y-125975000D02*
X139666000Y-119000000D01*
X139666000Y-119000000D02*
X139422000Y-119000000D01*
X147585000Y-128025000D02*
X146615000Y-128025000D01*
X146615000Y-128025000D02*
X138990000Y-120400000D01*
X138990000Y-120400000D02*
X126225000Y-120400000D01*
X126225000Y-120400000D02*
X124825000Y-119000000D01*
X139666000Y-119000000D02*
X146641000Y-125975000D01*
X146641000Y-125975000D02*
X147585000Y-125975000D01*
X147585000Y-125975000D02*
X147900000Y-126290000D01*
X147900000Y-126290000D02*
X147900000Y-127710000D01*
X147900000Y-127710000D02*
X147585000Y-128025000D01*
X147585000Y-128025000D02*
X146615000Y-128025000D01*
X146615000Y-128025000D02*
X138990000Y-120400000D01*
X138990000Y-120400000D02*
X126225000Y-120400000D01*
X126225000Y-120400000D02*
X124825000Y-119000000D01*
X147900000Y-126290000D02*
X147900000Y-127710000D01*
X147900000Y-127710000D02*
X147585000Y-128025000D01*
X147585000Y-128025000D02*
X146615000Y-128025000D01*
X146615000Y-128025000D02*
X138990000Y-120400000D01*
X138990000Y-120400000D02*
X126225000Y-120400000D01*
X126225000Y-120400000D02*
X124825000Y-119000000D01*
X147585000Y-125975000D02*
X147900000Y-126290000D01*
X147900000Y-126290000D02*
X147900000Y-127710000D01*
X147900000Y-127710000D02*
X147585000Y-128025000D01*
X147585000Y-128025000D02*
X146615000Y-128025000D01*
X146615000Y-128025000D02*
X138990000Y-120400000D01*
X138990000Y-120400000D02*
X126225000Y-120400000D01*
X126225000Y-120400000D02*
X124825000Y-119000000D01*
X146615000Y-128025000D02*
X138990000Y-120400000D01*
X138990000Y-120400000D02*
X126225000Y-120400000D01*
X126225000Y-120400000D02*
X124825000Y-119000000D01*
X146641000Y-125975000D02*
X147585000Y-125975000D01*
X147585000Y-125975000D02*
X147900000Y-126290000D01*
X147900000Y-126290000D02*
X147900000Y-127710000D01*
X147900000Y-127710000D02*
X147585000Y-128025000D01*
X147585000Y-128025000D02*
X146615000Y-128025000D01*
X146615000Y-128025000D02*
X138990000Y-120400000D01*
X138990000Y-120400000D02*
X126225000Y-120400000D01*
X126225000Y-120400000D02*
X124825000Y-119000000D01*
X126225000Y-120400000D02*
X124825000Y-119000000D01*
X138990000Y-120400000D02*
X126225000Y-120400000D01*
X126225000Y-120400000D02*
X124825000Y-119000000D01*
%TD*%
%TA.AperFunction,Conductor*%
%TO.N,/GND*%
G36*
X114434991Y-126926585D02*
G01*
X114480746Y-126979389D01*
X114490690Y-127048547D01*
X114461665Y-127112103D01*
X114442264Y-127130166D01*
X114392452Y-127167455D01*
X114306206Y-127282664D01*
X114306202Y-127282671D01*
X114255908Y-127417517D01*
X114249501Y-127477116D01*
X114249500Y-127477135D01*
X114249500Y-128203455D01*
X114229815Y-128270494D01*
X114213181Y-128291136D01*
X113806137Y-128698181D01*
X113744814Y-128731666D01*
X113718456Y-128734500D01*
X110015908Y-128734500D01*
X109948869Y-128714815D01*
X109903114Y-128662011D01*
X109892550Y-128597896D01*
X109899999Y-128524983D01*
X109900000Y-128524973D01*
X109900000Y-128250000D01*
X109024000Y-128250000D01*
X108956961Y-128230315D01*
X108911206Y-128177511D01*
X108900000Y-128126000D01*
X108900000Y-127874000D01*
X108919685Y-127806961D01*
X108972489Y-127761206D01*
X109024000Y-127750000D01*
X109899999Y-127750000D01*
X109899999Y-127475028D01*
X109899998Y-127475013D01*
X109889505Y-127372302D01*
X109834358Y-127205880D01*
X109834356Y-127205875D01*
X109766582Y-127095997D01*
X109748142Y-127028605D01*
X109769064Y-126961941D01*
X109822706Y-126917171D01*
X109872121Y-126906900D01*
X114367952Y-126906900D01*
X114434991Y-126926585D01*
G37*
%TD.AperFunction*%
%TA.AperFunction,Conductor*%
G36*
X115994918Y-126926585D02*
G01*
X116040673Y-126979389D01*
X116050617Y-127048547D01*
X116033418Y-127095997D01*
X115968991Y-127200447D01*
X115934506Y-127299798D01*
X115914713Y-127327540D01*
X115895296Y-127355585D01*
X115894456Y-127355934D01*
X115893927Y-127356676D01*
X115862242Y-127369327D01*
X115830780Y-127382408D01*
X115829884Y-127382247D01*
X115829039Y-127382585D01*
X115795587Y-127376106D01*
X115762004Y-127370093D01*
X115761336Y-127369473D01*
X115760443Y-127369300D01*
X115735793Y-127345753D01*
X115710804Y-127322549D01*
X115710215Y-127321321D01*
X115709920Y-127321039D01*
X115709756Y-127320363D01*
X115701181Y-127302468D01*
X115693798Y-127282673D01*
X115693793Y-127282664D01*
X115607547Y-127167455D01*
X115592345Y-127156075D01*
X115557736Y-127130166D01*
X115515866Y-127074232D01*
X115510882Y-127004540D01*
X115544368Y-126943218D01*
X115605692Y-126909733D01*
X115632048Y-126906900D01*
X115927879Y-126906900D01*
X115994918Y-126926585D01*
G37*
%TD.AperFunction*%
%TA.AperFunction,Conductor*%
G36*
X110115270Y-86221716D02*
G01*
X110118043Y-86221498D01*
X110186420Y-86235862D01*
X110215453Y-86257433D01*
X118088793Y-94130474D01*
X118154324Y-94168306D01*
X118154480Y-94168396D01*
X118154732Y-94168542D01*
X118178668Y-94193721D01*
X118202702Y-94218853D01*
X118202738Y-94219041D01*
X118202871Y-94219181D01*
X118209399Y-94253330D01*
X118213743Y-94275689D01*
X118216318Y-94275689D01*
X118216318Y-94275690D01*
X118213743Y-94275690D01*
X118216026Y-94287441D01*
X118215956Y-94287625D01*
X118215991Y-94287808D01*
X118214292Y-94292031D01*
X118192889Y-94348720D01*
X118138767Y-94423212D01*
X118060128Y-94577552D01*
X118006597Y-94742302D01*
X117979500Y-94913389D01*
X117979500Y-95086610D01*
X118004987Y-95247533D01*
X118006598Y-95257701D01*
X118060127Y-95422445D01*
X118138768Y-95576788D01*
X118240586Y-95716928D01*
X118363072Y-95839414D01*
X118503212Y-95941232D01*
X118657555Y-96019873D01*
X118822299Y-96073402D01*
X118993389Y-96100500D01*
X118993390Y-96100500D01*
X119166610Y-96100500D01*
X119166611Y-96100500D01*
X119337701Y-96073402D01*
X119502445Y-96019873D01*
X119656788Y-95941232D01*
X119796928Y-95839414D01*
X119919414Y-95716928D01*
X120021232Y-95576788D01*
X120099873Y-95422445D01*
X120153402Y-95257701D01*
X120155013Y-95247533D01*
X120158379Y-95226278D01*
X120188308Y-95163143D01*
X120247619Y-95126211D01*
X120317482Y-95127209D01*
X120368523Y-95157984D01*
X120613172Y-95402583D01*
X120646663Y-95463901D01*
X120649500Y-95490272D01*
X120649500Y-101303455D01*
X120629815Y-101370494D01*
X120613181Y-101391136D01*
X118665076Y-103339240D01*
X118603753Y-103372725D01*
X118534061Y-103367741D01*
X118521101Y-103362044D01*
X118480032Y-103341118D01*
X118292826Y-103280290D01*
X118098422Y-103249500D01*
X118098417Y-103249500D01*
X117901583Y-103249500D01*
X117901578Y-103249500D01*
X117707173Y-103280290D01*
X117519970Y-103341117D01*
X117344594Y-103430476D01*
X117253741Y-103496485D01*
X117185354Y-103546172D01*
X117185352Y-103546174D01*
X117185351Y-103546174D01*
X117046174Y-103685351D01*
X117046174Y-103685352D01*
X117046172Y-103685354D01*
X116996485Y-103753741D01*
X116930476Y-103844594D01*
X116841116Y-104019974D01*
X116826870Y-104063819D01*
X116787432Y-104121494D01*
X116723073Y-104148692D01*
X116708939Y-104149500D01*
X112791061Y-104149500D01*
X112724022Y-104129815D01*
X112678267Y-104077011D01*
X112673130Y-104063819D01*
X112668781Y-104050437D01*
X112658884Y-104019975D01*
X112569524Y-103844595D01*
X112453828Y-103685354D01*
X112314646Y-103546172D01*
X112155405Y-103430476D01*
X111980029Y-103341117D01*
X111792826Y-103280290D01*
X111598422Y-103249500D01*
X111598417Y-103249500D01*
X111401583Y-103249500D01*
X111401578Y-103249500D01*
X111207173Y-103280290D01*
X111019970Y-103341117D01*
X110844594Y-103430476D01*
X110753741Y-103496485D01*
X110685354Y-103546172D01*
X110685352Y-103546174D01*
X110685351Y-103546174D01*
X110546174Y-103685351D01*
X110546174Y-103685352D01*
X110546172Y-103685354D01*
X110496485Y-103753741D01*
X110430476Y-103844594D01*
X110341117Y-104019970D01*
X110280290Y-104207173D01*
X110249500Y-104401577D01*
X110249500Y-104598422D01*
X110280290Y-104792826D01*
X110341117Y-104980029D01*
X110430476Y-105155405D01*
X110546172Y-105314646D01*
X110685354Y-105453828D01*
X110844595Y-105569524D01*
X110895003Y-105595208D01*
X111019970Y-105658882D01*
X111019972Y-105658882D01*
X111019975Y-105658884D01*
X111120317Y-105691487D01*
X111207173Y-105719709D01*
X111401578Y-105750500D01*
X111401583Y-105750500D01*
X111598422Y-105750500D01*
X111792826Y-105719709D01*
X111980025Y-105658884D01*
X112155405Y-105569524D01*
X112314646Y-105453828D01*
X112453828Y-105314646D01*
X112569524Y-105155405D01*
X112658884Y-104980025D01*
X112673130Y-104936181D01*
X112712568Y-104878506D01*
X112776927Y-104851308D01*
X112791061Y-104850500D01*
X116708939Y-104850500D01*
X116775978Y-104870185D01*
X116821733Y-104922989D01*
X116826870Y-104936181D01*
X116841116Y-104980025D01*
X116930476Y-105155405D01*
X117046172Y-105314646D01*
X117185354Y-105453828D01*
X117344595Y-105569524D01*
X117395003Y-105595208D01*
X117519970Y-105658882D01*
X117519972Y-105658882D01*
X117519975Y-105658884D01*
X117620317Y-105691487D01*
X117707173Y-105719709D01*
X117901578Y-105750500D01*
X117901583Y-105750500D01*
X118028456Y-105750500D01*
X118095495Y-105770185D01*
X118116137Y-105786819D01*
X130167137Y-117837819D01*
X130200622Y-117899142D01*
X130195638Y-117968834D01*
X130153766Y-118024767D01*
X130088302Y-118049184D01*
X130079456Y-118049500D01*
X129689629Y-118049500D01*
X129689623Y-118049501D01*
X129622304Y-118056738D01*
X129622048Y-118054364D01*
X129564095Y-118051250D01*
X129517682Y-118022000D01*
X129170613Y-117674931D01*
X129170608Y-117674927D01*
X129090690Y-117628787D01*
X129090689Y-117628786D01*
X129090688Y-117628786D01*
X129001544Y-117604900D01*
X124275656Y-117604900D01*
X124186512Y-117628786D01*
X124186509Y-117628787D01*
X124106591Y-117674927D01*
X124106586Y-117674931D01*
X123678304Y-118103212D01*
X123616981Y-118136697D01*
X123547289Y-118131713D01*
X123539150Y-118128343D01*
X123526998Y-118122798D01*
X123504831Y-118106204D01*
X123427037Y-118077189D01*
X123423027Y-118075359D01*
X123399814Y-118055258D01*
X123375233Y-118036858D01*
X123373644Y-118032598D01*
X123370207Y-118029622D01*
X123361546Y-118000162D01*
X123350816Y-117971394D01*
X123350501Y-117962594D01*
X123350500Y-117962589D01*
X123350501Y-117962584D01*
X123350500Y-117962547D01*
X123350500Y-115130048D01*
X123370185Y-115063009D01*
X123422989Y-115017254D01*
X123442407Y-115010273D01*
X123449770Y-115008300D01*
X123449775Y-115008300D01*
X123589785Y-114970784D01*
X123715315Y-114898309D01*
X123817809Y-114795815D01*
X123890284Y-114670285D01*
X123927800Y-114530275D01*
X123927800Y-114385325D01*
X123890284Y-114245315D01*
X123817809Y-114119785D01*
X123715315Y-114017291D01*
X123715313Y-114017290D01*
X123715311Y-114017288D01*
X123589788Y-113944817D01*
X123589789Y-113944817D01*
X123576406Y-113941231D01*
X123449775Y-113907300D01*
X123304825Y-113907300D01*
X123178194Y-113941231D01*
X123164811Y-113944817D01*
X123039288Y-114017288D01*
X123039282Y-114017293D01*
X122936793Y-114119782D01*
X122936788Y-114119788D01*
X122864317Y-114245311D01*
X122864316Y-114245315D01*
X122826800Y-114385325D01*
X122826800Y-114385327D01*
X122826800Y-114461256D01*
X122819913Y-114484707D01*
X122817237Y-114509008D01*
X122809300Y-114520851D01*
X122807115Y-114528295D01*
X122799148Y-114539314D01*
X122795067Y-114544350D01*
X122719530Y-114619888D01*
X122688859Y-114673012D01*
X122683975Y-114681470D01*
X122683971Y-114681476D01*
X122673387Y-114699809D01*
X122673386Y-114699812D01*
X122649500Y-114788956D01*
X122649500Y-117962547D01*
X122629815Y-118029586D01*
X122577011Y-118075341D01*
X122568833Y-118078729D01*
X122495171Y-118106202D01*
X122495164Y-118106206D01*
X122379955Y-118192452D01*
X122379952Y-118192455D01*
X122293706Y-118307664D01*
X122293702Y-118307671D01*
X122243408Y-118442517D01*
X122237609Y-118496462D01*
X122237001Y-118502123D01*
X122237000Y-118502135D01*
X122237000Y-119497870D01*
X122237001Y-119497876D01*
X122243408Y-119557483D01*
X122293702Y-119692328D01*
X122293706Y-119692335D01*
X122379952Y-119807544D01*
X122379955Y-119807547D01*
X122495164Y-119893793D01*
X122495171Y-119893797D01*
X122532858Y-119907853D01*
X122630017Y-119944091D01*
X122689627Y-119950500D01*
X123310372Y-119950499D01*
X123369983Y-119944091D01*
X123394665Y-119934884D01*
X123464356Y-119929899D01*
X123525680Y-119963384D01*
X123559166Y-120024706D01*
X123562000Y-120051066D01*
X123562000Y-124890955D01*
X123542315Y-124957994D01*
X123525681Y-124978636D01*
X122498265Y-126006051D01*
X122436942Y-126039536D01*
X122367251Y-126034552D01*
X122357486Y-126030910D01*
X122357485Y-126030909D01*
X122357483Y-126030909D01*
X122297873Y-126024500D01*
X122297863Y-126024500D01*
X121702129Y-126024500D01*
X121702123Y-126024501D01*
X121642516Y-126030908D01*
X121507671Y-126081202D01*
X121507664Y-126081206D01*
X121392452Y-126167454D01*
X121390321Y-126169586D01*
X121387677Y-126171029D01*
X121385355Y-126172768D01*
X121385104Y-126172433D01*
X121328996Y-126203068D01*
X121302645Y-126205900D01*
X108752456Y-126205900D01*
X108663312Y-126229786D01*
X108663311Y-126229786D01*
X108663309Y-126229787D01*
X108663306Y-126229788D01*
X108583394Y-126275926D01*
X108583385Y-126275933D01*
X107731742Y-127127574D01*
X107670419Y-127161059D01*
X107600727Y-127156075D01*
X107569750Y-127139160D01*
X107492330Y-127081203D01*
X107492328Y-127081202D01*
X107357482Y-127030908D01*
X107357483Y-127030908D01*
X107297883Y-127024501D01*
X107297881Y-127024500D01*
X107297873Y-127024500D01*
X107297865Y-127024500D01*
X106854500Y-127024500D01*
X106787461Y-127004815D01*
X106741706Y-126952011D01*
X106730500Y-126900500D01*
X106730500Y-108881947D01*
X110000000Y-108881947D01*
X110000000Y-109118052D01*
X110036934Y-109351247D01*
X110109897Y-109575802D01*
X110217087Y-109786174D01*
X110277338Y-109869104D01*
X110277340Y-109869105D01*
X110976212Y-109170233D01*
X110987482Y-109212292D01*
X111059890Y-109337708D01*
X111162292Y-109440110D01*
X111287708Y-109512518D01*
X111329765Y-109523787D01*
X110630893Y-110222658D01*
X110713828Y-110282914D01*
X110924197Y-110390102D01*
X111148752Y-110463065D01*
X111148751Y-110463065D01*
X111381948Y-110500000D01*
X111618052Y-110500000D01*
X111851247Y-110463065D01*
X112075802Y-110390102D01*
X112286163Y-110282918D01*
X112286169Y-110282914D01*
X112369104Y-110222658D01*
X112369105Y-110222658D01*
X111670233Y-109523787D01*
X111712292Y-109512518D01*
X111837708Y-109440110D01*
X111940110Y-109337708D01*
X112012518Y-109212292D01*
X112023787Y-109170234D01*
X112722658Y-109869105D01*
X112722658Y-109869104D01*
X112782914Y-109786169D01*
X112782918Y-109786163D01*
X112890102Y-109575802D01*
X112963065Y-109351247D01*
X113000000Y-109118052D01*
X113000000Y-108881947D01*
X116500000Y-108881947D01*
X116500000Y-109118052D01*
X116536934Y-109351247D01*
X116609897Y-109575802D01*
X116717087Y-109786174D01*
X116777338Y-109869104D01*
X116777340Y-109869105D01*
X117476212Y-109170233D01*
X117487482Y-109212292D01*
X117559890Y-109337708D01*
X117662292Y-109440110D01*
X117787708Y-109512518D01*
X117829765Y-109523787D01*
X117130893Y-110222658D01*
X117213828Y-110282914D01*
X117424197Y-110390102D01*
X117648752Y-110463065D01*
X117648751Y-110463065D01*
X117881948Y-110500000D01*
X118118052Y-110500000D01*
X118351247Y-110463065D01*
X118575802Y-110390102D01*
X118786163Y-110282918D01*
X118786169Y-110282914D01*
X118869104Y-110222658D01*
X118869105Y-110222658D01*
X118170233Y-109523787D01*
X118212292Y-109512518D01*
X118337708Y-109440110D01*
X118440110Y-109337708D01*
X118512518Y-109212292D01*
X118523787Y-109170234D01*
X119222658Y-109869105D01*
X119222658Y-109869104D01*
X119282914Y-109786169D01*
X119282918Y-109786163D01*
X119390102Y-109575802D01*
X119463065Y-109351247D01*
X119500000Y-109118052D01*
X119500000Y-108881947D01*
X119463065Y-108648752D01*
X119390102Y-108424197D01*
X119282914Y-108213828D01*
X119222658Y-108130894D01*
X119222658Y-108130893D01*
X118523787Y-108829765D01*
X118512518Y-108787708D01*
X118440110Y-108662292D01*
X118337708Y-108559890D01*
X118212292Y-108487482D01*
X118170234Y-108476212D01*
X118869105Y-107777340D01*
X118869104Y-107777338D01*
X118786174Y-107717087D01*
X118575802Y-107609897D01*
X118351247Y-107536934D01*
X118351248Y-107536934D01*
X118118052Y-107500000D01*
X117881948Y-107500000D01*
X117648752Y-107536934D01*
X117424197Y-107609897D01*
X117213830Y-107717084D01*
X117130894Y-107777340D01*
X117829766Y-108476212D01*
X117787708Y-108487482D01*
X117662292Y-108559890D01*
X117559890Y-108662292D01*
X117487482Y-108787708D01*
X117476212Y-108829766D01*
X116777340Y-108130894D01*
X116717084Y-108213830D01*
X116609897Y-108424197D01*
X116536934Y-108648752D01*
X116500000Y-108881947D01*
X113000000Y-108881947D01*
X112963065Y-108648752D01*
X112890102Y-108424197D01*
X112782914Y-108213828D01*
X112722658Y-108130894D01*
X112722658Y-108130893D01*
X112023787Y-108829765D01*
X112012518Y-108787708D01*
X111940110Y-108662292D01*
X111837708Y-108559890D01*
X111712292Y-108487482D01*
X111670234Y-108476212D01*
X112369105Y-107777340D01*
X112369104Y-107777339D01*
X112286174Y-107717087D01*
X112075802Y-107609897D01*
X111851247Y-107536934D01*
X111851248Y-107536934D01*
X111618052Y-107500000D01*
X111381948Y-107500000D01*
X111148752Y-107536934D01*
X110924197Y-107609897D01*
X110713830Y-107717084D01*
X110630894Y-107777340D01*
X111329766Y-108476212D01*
X111287708Y-108487482D01*
X111162292Y-108559890D01*
X111059890Y-108662292D01*
X110987482Y-108787708D01*
X110976212Y-108829766D01*
X110277340Y-108130894D01*
X110217084Y-108213830D01*
X110109897Y-108424197D01*
X110036934Y-108648752D01*
X110000000Y-108881947D01*
X106730500Y-108881947D01*
X106730500Y-96224500D01*
X106750185Y-96157461D01*
X106802989Y-96111706D01*
X106854500Y-96100500D01*
X107254676Y-96100500D01*
X107254677Y-96100499D01*
X107327740Y-96085966D01*
X107410601Y-96030601D01*
X107465966Y-95947740D01*
X107480500Y-95874674D01*
X107480500Y-95664949D01*
X107500185Y-95597910D01*
X107552989Y-95552155D01*
X107622147Y-95542211D01*
X107685703Y-95571236D01*
X107714985Y-95608654D01*
X107765375Y-95707550D01*
X107804728Y-95761716D01*
X108437037Y-95129408D01*
X108454075Y-95192993D01*
X108519901Y-95307007D01*
X108612993Y-95400099D01*
X108727007Y-95465925D01*
X108790590Y-95482962D01*
X108158282Y-96115269D01*
X108158282Y-96115270D01*
X108212449Y-96154624D01*
X108401782Y-96251095D01*
X108603870Y-96316757D01*
X108813754Y-96350000D01*
X109026246Y-96350000D01*
X109236127Y-96316757D01*
X109236130Y-96316757D01*
X109438217Y-96251095D01*
X109627554Y-96154622D01*
X109681716Y-96115270D01*
X109681717Y-96115270D01*
X109049408Y-95482962D01*
X109112993Y-95465925D01*
X109227007Y-95400099D01*
X109320099Y-95307007D01*
X109385925Y-95192993D01*
X109402962Y-95129408D01*
X110035270Y-95761717D01*
X110035270Y-95761716D01*
X110074622Y-95707554D01*
X110171096Y-95518215D01*
X110203239Y-95419288D01*
X110242676Y-95361612D01*
X110307034Y-95334413D01*
X110375880Y-95346327D01*
X110427357Y-95393571D01*
X110439100Y-95419284D01*
X110440127Y-95422446D01*
X110462281Y-95465925D01*
X110518768Y-95576788D01*
X110620586Y-95716928D01*
X110743072Y-95839414D01*
X110883212Y-95941232D01*
X111037555Y-96019873D01*
X111202299Y-96073402D01*
X111373389Y-96100500D01*
X111373390Y-96100500D01*
X111546610Y-96100500D01*
X111546611Y-96100500D01*
X111717701Y-96073402D01*
X111882445Y-96019873D01*
X112036788Y-95941232D01*
X112176928Y-95839414D01*
X112299414Y-95716928D01*
X112401232Y-95576788D01*
X112479873Y-95422445D01*
X112533402Y-95257701D01*
X112560500Y-95086611D01*
X112560500Y-94913389D01*
X112899500Y-94913389D01*
X112899500Y-95086610D01*
X112924987Y-95247533D01*
X112926598Y-95257701D01*
X112980127Y-95422445D01*
X113058768Y-95576788D01*
X113160586Y-95716928D01*
X113283072Y-95839414D01*
X113423212Y-95941232D01*
X113577555Y-96019873D01*
X113742299Y-96073402D01*
X113913389Y-96100500D01*
X113913390Y-96100500D01*
X114086610Y-96100500D01*
X114086611Y-96100500D01*
X114257701Y-96073402D01*
X114422445Y-96019873D01*
X114576788Y-95941232D01*
X114716928Y-95839414D01*
X114839414Y-95716928D01*
X114941232Y-95576788D01*
X115019873Y-95422445D01*
X115073402Y-95257701D01*
X115100500Y-95086611D01*
X115100500Y-94913389D01*
X115073402Y-94742299D01*
X115019873Y-94577555D01*
X114941232Y-94423212D01*
X114839414Y-94283072D01*
X114716928Y-94160586D01*
X114576788Y-94058768D01*
X114422445Y-93980127D01*
X114257701Y-93926598D01*
X114257699Y-93926597D01*
X114257698Y-93926597D01*
X114126271Y-93905781D01*
X114086611Y-93899500D01*
X113913389Y-93899500D01*
X113873728Y-93905781D01*
X113742302Y-93926597D01*
X113577552Y-93980128D01*
X113423211Y-94058768D01*
X113359977Y-94104711D01*
X113283072Y-94160586D01*
X113283070Y-94160588D01*
X113283069Y-94160588D01*
X113160588Y-94283069D01*
X113160588Y-94283070D01*
X113160586Y-94283072D01*
X113122822Y-94335050D01*
X113058768Y-94423211D01*
X112980128Y-94577552D01*
X112926597Y-94742302D01*
X112899500Y-94913389D01*
X112560500Y-94913389D01*
X112533402Y-94742299D01*
X112479873Y-94577555D01*
X112401232Y-94423212D01*
X112299414Y-94283072D01*
X112176928Y-94160586D01*
X112036788Y-94058768D01*
X111882445Y-93980127D01*
X111717701Y-93926598D01*
X111717699Y-93926597D01*
X111717698Y-93926597D01*
X111586271Y-93905781D01*
X111546611Y-93899500D01*
X111373389Y-93899500D01*
X111333728Y-93905781D01*
X111202302Y-93926597D01*
X111037552Y-93980128D01*
X110883211Y-94058768D01*
X110819977Y-94104711D01*
X110743072Y-94160586D01*
X110743070Y-94160588D01*
X110743069Y-94160588D01*
X110620588Y-94283069D01*
X110620588Y-94283070D01*
X110620586Y-94283072D01*
X110582822Y-94335050D01*
X110518768Y-94423211D01*
X110440128Y-94577550D01*
X110439099Y-94580720D01*
X110438381Y-94581769D01*
X110438266Y-94582048D01*
X110438207Y-94582023D01*
X110399657Y-94638393D01*
X110335297Y-94665587D01*
X110266451Y-94653668D01*
X110214979Y-94606420D01*
X110203239Y-94580711D01*
X110171096Y-94481784D01*
X110074624Y-94292449D01*
X110035270Y-94238282D01*
X110035269Y-94238282D01*
X109402962Y-94870590D01*
X109385925Y-94807007D01*
X109320099Y-94692993D01*
X109227007Y-94599901D01*
X109112993Y-94534075D01*
X109049409Y-94517037D01*
X109681716Y-93884728D01*
X109627550Y-93845375D01*
X109438217Y-93748904D01*
X109236129Y-93683242D01*
X109026246Y-93650000D01*
X108813754Y-93650000D01*
X108603872Y-93683242D01*
X108603869Y-93683242D01*
X108401782Y-93748904D01*
X108212439Y-93845380D01*
X108158282Y-93884727D01*
X108158282Y-93884728D01*
X108790591Y-94517037D01*
X108727007Y-94534075D01*
X108612993Y-94599901D01*
X108519901Y-94692993D01*
X108454075Y-94807007D01*
X108437037Y-94870591D01*
X107804728Y-94238282D01*
X107804727Y-94238282D01*
X107765380Y-94292440D01*
X107765378Y-94292443D01*
X107714984Y-94391346D01*
X107667010Y-94442141D01*
X107599188Y-94458936D01*
X107533054Y-94436398D01*
X107489603Y-94381683D01*
X107480500Y-94335050D01*
X107480500Y-94125323D01*
X107480499Y-94125321D01*
X107465967Y-94052264D01*
X107465966Y-94052260D01*
X107410601Y-93969399D01*
X107327740Y-93914034D01*
X107327739Y-93914033D01*
X107327735Y-93914032D01*
X107254677Y-93899500D01*
X107254674Y-93899500D01*
X106854500Y-93899500D01*
X106787461Y-93879815D01*
X106741706Y-93827011D01*
X106730500Y-93775500D01*
X106730500Y-86684500D01*
X106750185Y-86617461D01*
X106802989Y-86571706D01*
X106854500Y-86560500D01*
X107334676Y-86560500D01*
X107334677Y-86560499D01*
X107407735Y-86545967D01*
X107407737Y-86545967D01*
X107407737Y-86545966D01*
X107407740Y-86545966D01*
X107432556Y-86529384D01*
X107499230Y-86508508D01*
X107566610Y-86526992D01*
X107589125Y-86544807D01*
X115491347Y-94447029D01*
X115524832Y-94508352D01*
X115521597Y-94573028D01*
X115466597Y-94742301D01*
X115439500Y-94913389D01*
X115439500Y-95086610D01*
X115464987Y-95247533D01*
X115466598Y-95257701D01*
X115520127Y-95422445D01*
X115598768Y-95576788D01*
X115700586Y-95716928D01*
X115823072Y-95839414D01*
X115963212Y-95941232D01*
X116117555Y-96019873D01*
X116282299Y-96073402D01*
X116453389Y-96100500D01*
X116453390Y-96100500D01*
X116626610Y-96100500D01*
X116626611Y-96100500D01*
X116797701Y-96073402D01*
X116962445Y-96019873D01*
X117116788Y-95941232D01*
X117256928Y-95839414D01*
X117379414Y-95716928D01*
X117481232Y-95576788D01*
X117559873Y-95422445D01*
X117613402Y-95257701D01*
X117640500Y-95086611D01*
X117640500Y-94913389D01*
X117613402Y-94742299D01*
X117559873Y-94577555D01*
X117481232Y-94423212D01*
X117379414Y-94283072D01*
X117256928Y-94160586D01*
X117116788Y-94058768D01*
X116962445Y-93980127D01*
X116797701Y-93926598D01*
X116797699Y-93926597D01*
X116797698Y-93926597D01*
X116666271Y-93905781D01*
X116626611Y-93899500D01*
X116453389Y-93899500D01*
X116421192Y-93904599D01*
X116282301Y-93926597D01*
X116113028Y-93981597D01*
X116043186Y-93983592D01*
X115987029Y-93951347D01*
X109053392Y-87017710D01*
X109019907Y-86956387D01*
X109024891Y-86886695D01*
X109066763Y-86830762D01*
X109121675Y-86807556D01*
X109316127Y-86776757D01*
X109316130Y-86776757D01*
X109518217Y-86711095D01*
X109707554Y-86614622D01*
X109761716Y-86575270D01*
X109761717Y-86575270D01*
X109129409Y-85942962D01*
X109192993Y-85925925D01*
X109307007Y-85860099D01*
X109400099Y-85767007D01*
X109465925Y-85652993D01*
X109482962Y-85589408D01*
X110115270Y-86221716D01*
G37*
%TD.AperFunction*%
%TA.AperFunction,Conductor*%
G36*
X144568834Y-88550022D02*
G01*
X144624767Y-88591894D01*
X144649184Y-88657358D01*
X144649500Y-88666204D01*
X144649500Y-95586145D01*
X144665056Y-95644203D01*
X144673384Y-95675283D01*
X144673387Y-95675290D01*
X144719527Y-95755208D01*
X144719531Y-95755213D01*
X145411347Y-96447029D01*
X145444832Y-96508352D01*
X145441597Y-96573028D01*
X145386597Y-96742301D01*
X145376349Y-96807007D01*
X145359500Y-96913389D01*
X145359500Y-97086611D01*
X145386598Y-97257701D01*
X145440127Y-97422445D01*
X145518768Y-97576788D01*
X145620586Y-97716928D01*
X145743072Y-97839414D01*
X145883212Y-97941232D01*
X146037555Y-98019873D01*
X146202299Y-98073402D01*
X146373389Y-98100500D01*
X146373390Y-98100500D01*
X146546610Y-98100500D01*
X146546611Y-98100500D01*
X146717701Y-98073402D01*
X146882445Y-98019873D01*
X146882447Y-98019871D01*
X146886971Y-98018402D01*
X146956812Y-98016407D01*
X147012970Y-98048652D01*
X149763181Y-100798863D01*
X149796666Y-100860186D01*
X149799500Y-100886544D01*
X149799500Y-104155500D01*
X149779815Y-104222539D01*
X149727011Y-104268294D01*
X149675500Y-104279500D01*
X148125323Y-104279500D01*
X148052264Y-104294032D01*
X148052260Y-104294033D01*
X147969399Y-104349399D01*
X147914033Y-104432260D01*
X147914032Y-104432264D01*
X147899500Y-104505321D01*
X147899500Y-106254678D01*
X147914032Y-106327735D01*
X147914033Y-106327739D01*
X147914034Y-106327740D01*
X147969399Y-106410601D01*
X148052260Y-106465966D01*
X148052264Y-106465967D01*
X148125321Y-106480499D01*
X148125324Y-106480500D01*
X148125326Y-106480500D01*
X148335051Y-106480500D01*
X148402090Y-106500185D01*
X148447845Y-106552989D01*
X148457789Y-106622147D01*
X148428764Y-106685703D01*
X148391346Y-106714985D01*
X148292439Y-106765380D01*
X148238282Y-106804727D01*
X148238282Y-106804728D01*
X148870591Y-107437037D01*
X148807007Y-107454075D01*
X148692993Y-107519901D01*
X148599901Y-107612993D01*
X148534075Y-107727007D01*
X148517037Y-107790591D01*
X147884728Y-107158282D01*
X147884727Y-107158282D01*
X147845380Y-107212439D01*
X147748904Y-107401782D01*
X147683242Y-107603869D01*
X147683242Y-107603872D01*
X147650000Y-107813753D01*
X147650000Y-108026246D01*
X147683242Y-108236127D01*
X147683243Y-108236134D01*
X147721659Y-108354367D01*
X147723654Y-108424208D01*
X147687573Y-108484040D01*
X147624872Y-108514868D01*
X147555458Y-108506903D01*
X147516047Y-108480365D01*
X144306819Y-105271137D01*
X144273334Y-105209814D01*
X144270500Y-105183456D01*
X144270500Y-98132518D01*
X144290185Y-98065479D01*
X144338206Y-98022033D01*
X144496786Y-97941233D01*
X144496785Y-97941233D01*
X144496788Y-97941232D01*
X144636928Y-97839414D01*
X144759414Y-97716928D01*
X144861232Y-97576788D01*
X144939873Y-97422445D01*
X144993402Y-97257701D01*
X145020500Y-97086611D01*
X145020500Y-96913389D01*
X144993402Y-96742299D01*
X144939873Y-96577555D01*
X144861232Y-96423212D01*
X144759414Y-96283072D01*
X144636928Y-96160586D01*
X144496788Y-96058768D01*
X144342445Y-95980127D01*
X144177701Y-95926598D01*
X144177699Y-95926597D01*
X144177698Y-95926597D01*
X144046271Y-95905781D01*
X144006611Y-95899500D01*
X143833389Y-95899500D01*
X143801192Y-95904599D01*
X143662301Y-95926597D01*
X143493028Y-95981597D01*
X143423186Y-95983592D01*
X143367029Y-95951347D01*
X142856819Y-95441137D01*
X142823334Y-95379814D01*
X142820500Y-95353456D01*
X142820500Y-88862786D01*
X142840185Y-88795747D01*
X142892989Y-88749992D01*
X142962147Y-88740048D01*
X143017385Y-88762467D01*
X143043212Y-88781232D01*
X143197555Y-88859873D01*
X143362299Y-88913402D01*
X143533389Y-88940500D01*
X143533390Y-88940500D01*
X143706610Y-88940500D01*
X143706611Y-88940500D01*
X143877701Y-88913402D01*
X144042445Y-88859873D01*
X144196788Y-88781232D01*
X144336928Y-88679414D01*
X144437819Y-88578523D01*
X144499142Y-88545038D01*
X144568834Y-88550022D01*
G37*
%TD.AperFunction*%
%TA.AperFunction,Conductor*%
G36*
X129788814Y-61695382D02*
G01*
X129802147Y-61693466D01*
X129822290Y-61702665D01*
X129843927Y-61707372D01*
X129861652Y-61720640D01*
X129865703Y-61722491D01*
X129872181Y-61728523D01*
X129983072Y-61839414D01*
X130123212Y-61941232D01*
X130277555Y-62019873D01*
X130301118Y-62027529D01*
X130358792Y-62066963D01*
X130385991Y-62131321D01*
X130374079Y-62200168D01*
X130329928Y-62248275D01*
X130330134Y-62248543D01*
X130328608Y-62249713D01*
X130326836Y-62251645D01*
X130324813Y-62252839D01*
X130323691Y-62253486D01*
X130323682Y-62253493D01*
X130221193Y-62355982D01*
X130221188Y-62355988D01*
X130148717Y-62481511D01*
X130148716Y-62481515D01*
X130111200Y-62621525D01*
X130111200Y-62766475D01*
X130148716Y-62906485D01*
X130148717Y-62906488D01*
X130221188Y-63032011D01*
X130221193Y-63032017D01*
X130274881Y-63085705D01*
X130308366Y-63147028D01*
X130311200Y-63173386D01*
X130311200Y-82568256D01*
X130291515Y-82635295D01*
X130274881Y-82655937D01*
X125150737Y-87780081D01*
X125089414Y-87813566D01*
X125063056Y-87816400D01*
X124987125Y-87816400D01*
X124858593Y-87850840D01*
X124847111Y-87853917D01*
X124721588Y-87926388D01*
X124721582Y-87926393D01*
X124619093Y-88028882D01*
X124619088Y-88028888D01*
X124546617Y-88154411D01*
X124546616Y-88154415D01*
X124509100Y-88294425D01*
X124509100Y-88294427D01*
X124509100Y-88439374D01*
X124523578Y-88493407D01*
X124521915Y-88563257D01*
X124482752Y-88621119D01*
X124418524Y-88648623D01*
X124403803Y-88649500D01*
X115276544Y-88649500D01*
X115209505Y-88629815D01*
X115188863Y-88613181D01*
X112588652Y-86012970D01*
X112555167Y-85951647D01*
X112558402Y-85886971D01*
X112559873Y-85882445D01*
X112613402Y-85717701D01*
X112640500Y-85546611D01*
X112640500Y-85373389D01*
X112979500Y-85373389D01*
X112979500Y-85546611D01*
X113006598Y-85717701D01*
X113060127Y-85882445D01*
X113138768Y-86036788D01*
X113240586Y-86176928D01*
X113363072Y-86299414D01*
X113503212Y-86401232D01*
X113657555Y-86479873D01*
X113822299Y-86533402D01*
X113993389Y-86560500D01*
X113993390Y-86560500D01*
X114166610Y-86560500D01*
X114166611Y-86560500D01*
X114337701Y-86533402D01*
X114502445Y-86479873D01*
X114656788Y-86401232D01*
X114796928Y-86299414D01*
X114919414Y-86176928D01*
X115021232Y-86036788D01*
X115099873Y-85882445D01*
X115153402Y-85717701D01*
X115180500Y-85546611D01*
X115180500Y-85373389D01*
X115153402Y-85202299D01*
X115099873Y-85037555D01*
X115021232Y-84883212D01*
X114919414Y-84743072D01*
X114796928Y-84620586D01*
X114656788Y-84518768D01*
X114502445Y-84440127D01*
X114337701Y-84386598D01*
X114337699Y-84386597D01*
X114337698Y-84386597D01*
X114206271Y-84365781D01*
X114166611Y-84359500D01*
X113993389Y-84359500D01*
X113953728Y-84365781D01*
X113822302Y-84386597D01*
X113657552Y-84440128D01*
X113503211Y-84518768D01*
X113435149Y-84568219D01*
X113363072Y-84620586D01*
X113363070Y-84620588D01*
X113363069Y-84620588D01*
X113240588Y-84743069D01*
X113240588Y-84743070D01*
X113240586Y-84743072D01*
X113222120Y-84768488D01*
X113138768Y-84883211D01*
X113060128Y-85037552D01*
X113006597Y-85202302D01*
X113000644Y-85239888D01*
X112979500Y-85373389D01*
X112640500Y-85373389D01*
X112613402Y-85202299D01*
X112559873Y-85037555D01*
X112481232Y-84883212D01*
X112379414Y-84743072D01*
X112256928Y-84620586D01*
X112116788Y-84518768D01*
X111962445Y-84440127D01*
X111797701Y-84386598D01*
X111797699Y-84386597D01*
X111797697Y-84386597D01*
X111797696Y-84386596D01*
X111766209Y-84381610D01*
X111703074Y-84351681D01*
X111666142Y-84292370D01*
X111667140Y-84222507D01*
X111697923Y-84171458D01*
X127050470Y-68818912D01*
X127096614Y-68738988D01*
X127109656Y-68690314D01*
X127120500Y-68649844D01*
X127120500Y-61816204D01*
X127140185Y-61749165D01*
X127192989Y-61703410D01*
X127262147Y-61693466D01*
X127325703Y-61722491D01*
X127332181Y-61728523D01*
X127443072Y-61839414D01*
X127583212Y-61941232D01*
X127737555Y-62019873D01*
X127902299Y-62073402D01*
X128073389Y-62100500D01*
X128073390Y-62100500D01*
X128246610Y-62100500D01*
X128246611Y-62100500D01*
X128417701Y-62073402D01*
X128582445Y-62019873D01*
X128736788Y-61941232D01*
X128762614Y-61922467D01*
X128828420Y-61898988D01*
X128896474Y-61914813D01*
X128945169Y-61964919D01*
X128959500Y-62022786D01*
X128959500Y-72573455D01*
X128939815Y-72640494D01*
X128923181Y-72661136D01*
X117172969Y-84411347D01*
X117111646Y-84444832D01*
X117046970Y-84441597D01*
X116877698Y-84386597D01*
X116746271Y-84365781D01*
X116706611Y-84359500D01*
X116533389Y-84359500D01*
X116493728Y-84365781D01*
X116362302Y-84386597D01*
X116197552Y-84440128D01*
X116043211Y-84518768D01*
X115975149Y-84568219D01*
X115903072Y-84620586D01*
X115903070Y-84620588D01*
X115903069Y-84620588D01*
X115780588Y-84743069D01*
X115780588Y-84743070D01*
X115780586Y-84743072D01*
X115762120Y-84768488D01*
X115678768Y-84883211D01*
X115600128Y-85037552D01*
X115546597Y-85202302D01*
X115540644Y-85239888D01*
X115519500Y-85373389D01*
X115519500Y-85546611D01*
X115546598Y-85717701D01*
X115600127Y-85882445D01*
X115678768Y-86036788D01*
X115780586Y-86176928D01*
X115903072Y-86299414D01*
X116043212Y-86401232D01*
X116197555Y-86479873D01*
X116362299Y-86533402D01*
X116533389Y-86560500D01*
X116533390Y-86560500D01*
X116706610Y-86560500D01*
X116706611Y-86560500D01*
X116877701Y-86533402D01*
X117042445Y-86479873D01*
X117196788Y-86401232D01*
X117336928Y-86299414D01*
X117459414Y-86176928D01*
X117561232Y-86036788D01*
X117639873Y-85882445D01*
X117640896Y-85879294D01*
X117641610Y-85878250D01*
X117641734Y-85877952D01*
X117641796Y-85877977D01*
X117680327Y-85821618D01*
X117744683Y-85794415D01*
X117813530Y-85806323D01*
X117865011Y-85853562D01*
X117876760Y-85879287D01*
X117908904Y-85978217D01*
X118005375Y-86167550D01*
X118044728Y-86221716D01*
X118677037Y-85589408D01*
X118694075Y-85652993D01*
X118759901Y-85767007D01*
X118852993Y-85860099D01*
X118967007Y-85925925D01*
X119030590Y-85942962D01*
X118398282Y-86575269D01*
X118398282Y-86575270D01*
X118452449Y-86614624D01*
X118641782Y-86711095D01*
X118843870Y-86776757D01*
X119053754Y-86810000D01*
X119266246Y-86810000D01*
X119476127Y-86776757D01*
X119476130Y-86776757D01*
X119678217Y-86711095D01*
X119867554Y-86614622D01*
X119921716Y-86575270D01*
X119921717Y-86575270D01*
X119289408Y-85942962D01*
X119352993Y-85925925D01*
X119467007Y-85860099D01*
X119560099Y-85767007D01*
X119625925Y-85652993D01*
X119642962Y-85589409D01*
X120275270Y-86221717D01*
X120275270Y-86221716D01*
X120314622Y-86167554D01*
X120411095Y-85978217D01*
X120476757Y-85776130D01*
X120476757Y-85776127D01*
X120510000Y-85566246D01*
X120510000Y-85353753D01*
X120476757Y-85143872D01*
X120476757Y-85143869D01*
X120411095Y-84941782D01*
X120314624Y-84752449D01*
X120275270Y-84698282D01*
X120275269Y-84698282D01*
X119642962Y-85330590D01*
X119625925Y-85267007D01*
X119560099Y-85152993D01*
X119467007Y-85059901D01*
X119352993Y-84994075D01*
X119289408Y-84977037D01*
X119921716Y-84344728D01*
X119867550Y-84305375D01*
X119678217Y-84208904D01*
X119476129Y-84143242D01*
X119266246Y-84110000D01*
X119053754Y-84110000D01*
X118843872Y-84143242D01*
X118843865Y-84143243D01*
X118725630Y-84181660D01*
X118655789Y-84183655D01*
X118595957Y-84147574D01*
X118565129Y-84084873D01*
X118573094Y-84015459D01*
X118599629Y-83976051D01*
X129590470Y-72985212D01*
X129636614Y-72905288D01*
X129660500Y-72816144D01*
X129660500Y-61816204D01*
X129666738Y-61794958D01*
X129668318Y-61772870D01*
X129676390Y-61762086D01*
X129680185Y-61749165D01*
X129696918Y-61734665D01*
X129710190Y-61716937D01*
X129722810Y-61712229D01*
X129732989Y-61703410D01*
X129754906Y-61700258D01*
X129775654Y-61692520D01*
X129788814Y-61695382D01*
G37*
%TD.AperFunction*%
%TA.AperFunction,Conductor*%
G36*
X131436474Y-61914813D02*
G01*
X131485169Y-61964919D01*
X131499500Y-62022786D01*
X131499500Y-78656143D01*
X131523386Y-78745287D01*
X131523387Y-78745290D01*
X131569527Y-78825208D01*
X131569531Y-78825213D01*
X139100365Y-86356047D01*
X139133850Y-86417370D01*
X139128866Y-86487062D01*
X139086994Y-86542995D01*
X139021530Y-86567412D01*
X138974367Y-86561659D01*
X138856134Y-86523243D01*
X138856127Y-86523242D01*
X138646246Y-86490000D01*
X138433754Y-86490000D01*
X138223872Y-86523242D01*
X138223869Y-86523242D01*
X138021782Y-86588904D01*
X137832439Y-86685380D01*
X137778282Y-86724727D01*
X137778282Y-86724728D01*
X138410591Y-87357037D01*
X138347007Y-87374075D01*
X138232993Y-87439901D01*
X138139901Y-87532993D01*
X138074075Y-87647007D01*
X138057037Y-87710591D01*
X137424728Y-87078282D01*
X137424727Y-87078282D01*
X137385380Y-87132440D01*
X137385378Y-87132443D01*
X137334984Y-87231346D01*
X137287010Y-87282141D01*
X137219188Y-87298936D01*
X137153054Y-87276398D01*
X137109603Y-87221683D01*
X137100500Y-87175050D01*
X137100500Y-86965323D01*
X137100499Y-86965321D01*
X137085967Y-86892264D01*
X137085966Y-86892260D01*
X137060716Y-86854470D01*
X137030601Y-86809399D01*
X136966542Y-86766597D01*
X136947739Y-86754033D01*
X136947735Y-86754032D01*
X136874677Y-86739500D01*
X136874674Y-86739500D01*
X135125326Y-86739500D01*
X135125323Y-86739500D01*
X135052264Y-86754032D01*
X135052260Y-86754033D01*
X134969399Y-86809399D01*
X134914033Y-86892260D01*
X134914032Y-86892264D01*
X134899500Y-86965321D01*
X134899500Y-88525500D01*
X134879815Y-88592539D01*
X134827011Y-88638294D01*
X134775500Y-88649500D01*
X125715397Y-88649500D01*
X125648358Y-88629815D01*
X125602603Y-88577011D01*
X125592215Y-88511283D01*
X125593261Y-88502217D01*
X125610100Y-88439375D01*
X125610100Y-88356314D01*
X125610918Y-88349227D01*
X125621871Y-88323355D01*
X125629785Y-88296405D01*
X125637152Y-88287262D01*
X125638158Y-88284887D01*
X125640178Y-88283507D01*
X125646419Y-88275763D01*
X128281544Y-85640638D01*
X130942170Y-82980012D01*
X130988314Y-82900088D01*
X131012200Y-82810944D01*
X131012200Y-82718656D01*
X131012200Y-63173386D01*
X131031885Y-63106347D01*
X131048519Y-63085705D01*
X131102209Y-63032015D01*
X131174684Y-62906485D01*
X131212200Y-62766475D01*
X131212200Y-62621525D01*
X131174684Y-62481515D01*
X131102209Y-62355985D01*
X130999715Y-62253491D01*
X130996569Y-62250345D01*
X130963084Y-62189022D01*
X130968068Y-62119330D01*
X131009940Y-62063397D01*
X131045927Y-62044735D01*
X131122445Y-62019873D01*
X131276788Y-61941232D01*
X131302614Y-61922467D01*
X131368420Y-61898988D01*
X131436474Y-61914813D01*
G37*
%TD.AperFunction*%
%TA.AperFunction,Conductor*%
G36*
X126356474Y-61914813D02*
G01*
X126405169Y-61964919D01*
X126419500Y-62022786D01*
X126419500Y-68407155D01*
X126399815Y-68474194D01*
X126383181Y-68494836D01*
X110215453Y-84662563D01*
X110154130Y-84696048D01*
X110118044Y-84698500D01*
X110115270Y-84698281D01*
X109482962Y-85330590D01*
X109465925Y-85267007D01*
X109400099Y-85152993D01*
X109307007Y-85059901D01*
X109192993Y-84994075D01*
X109129407Y-84977036D01*
X109761716Y-84344728D01*
X109707550Y-84305375D01*
X109518215Y-84208903D01*
X109410462Y-84173893D01*
X109352786Y-84134456D01*
X109325587Y-84070098D01*
X109337501Y-84001251D01*
X109361092Y-83968288D01*
X124750469Y-68578912D01*
X124796614Y-68498988D01*
X124820500Y-68409844D01*
X124820500Y-62022786D01*
X124840185Y-61955747D01*
X124892989Y-61909992D01*
X124962147Y-61900048D01*
X125017385Y-61922467D01*
X125043212Y-61941232D01*
X125197555Y-62019873D01*
X125362299Y-62073402D01*
X125533389Y-62100500D01*
X125533390Y-62100500D01*
X125706610Y-62100500D01*
X125706611Y-62100500D01*
X125877701Y-62073402D01*
X126042445Y-62019873D01*
X126196788Y-61941232D01*
X126222614Y-61922467D01*
X126288420Y-61898988D01*
X126356474Y-61914813D01*
G37*
%TD.AperFunction*%
%TA.AperFunction,Conductor*%
G36*
X170442539Y-52520185D02*
G01*
X170488294Y-52572989D01*
X170499500Y-52624500D01*
X170499500Y-141375500D01*
X170479815Y-141442539D01*
X170427011Y-141488294D01*
X170375500Y-141499500D01*
X91624500Y-141499500D01*
X91557461Y-141479815D01*
X91511706Y-141427011D01*
X91500500Y-141375500D01*
X91500500Y-94125321D01*
X105279500Y-94125321D01*
X105279500Y-95874678D01*
X105294032Y-95947735D01*
X105294033Y-95947739D01*
X105294034Y-95947740D01*
X105349399Y-96030601D01*
X105432260Y-96085966D01*
X105432264Y-96085967D01*
X105505321Y-96100499D01*
X105505324Y-96100500D01*
X105505326Y-96100500D01*
X105905500Y-96100500D01*
X105972539Y-96120185D01*
X106018294Y-96172989D01*
X106029500Y-96224500D01*
X106029500Y-127426145D01*
X106047892Y-127494786D01*
X106053385Y-127515285D01*
X106053387Y-127515290D01*
X106099527Y-127595208D01*
X106099531Y-127595213D01*
X106213181Y-127708863D01*
X106246666Y-127770186D01*
X106249500Y-127796544D01*
X106249500Y-128522870D01*
X106249501Y-128522876D01*
X106255908Y-128582483D01*
X106306202Y-128717328D01*
X106306206Y-128717335D01*
X106392452Y-128832544D01*
X106392455Y-128832547D01*
X106507664Y-128918793D01*
X106507671Y-128918797D01*
X106552618Y-128935561D01*
X106642517Y-128969091D01*
X106702127Y-128975500D01*
X107297872Y-128975499D01*
X107357483Y-128969091D01*
X107492331Y-128918796D01*
X107551908Y-128874196D01*
X107617371Y-128849779D01*
X107685645Y-128864630D01*
X107713900Y-128885782D01*
X108193588Y-129365470D01*
X108273512Y-129411614D01*
X108362656Y-129435500D01*
X108362658Y-129435500D01*
X113961142Y-129435500D01*
X113961144Y-129435500D01*
X114050288Y-129411614D01*
X114130212Y-129365470D01*
X114501734Y-128993946D01*
X114563055Y-128960463D01*
X114632745Y-128965447D01*
X114642511Y-128969089D01*
X114642517Y-128969091D01*
X114702127Y-128975500D01*
X115297872Y-128975499D01*
X115357483Y-128969091D01*
X115367250Y-128965447D01*
X115436940Y-128960462D01*
X115498261Y-128993943D01*
X115813288Y-129308970D01*
X115893212Y-129355114D01*
X115982356Y-129379000D01*
X115982357Y-129379000D01*
X115982358Y-129379000D01*
X129117642Y-129379000D01*
X129117644Y-129379000D01*
X129206788Y-129355114D01*
X129286712Y-129308970D01*
X130601734Y-127993946D01*
X130663055Y-127960463D01*
X130732745Y-127965447D01*
X130742511Y-127969089D01*
X130742517Y-127969091D01*
X130802127Y-127975500D01*
X131397872Y-127975499D01*
X131457483Y-127969091D01*
X131467250Y-127965447D01*
X131536940Y-127960462D01*
X131598261Y-127993943D01*
X131916588Y-128312270D01*
X131968453Y-128342214D01*
X131968455Y-128342215D01*
X131996509Y-128358413D01*
X131996511Y-128358413D01*
X131996512Y-128358414D01*
X132085656Y-128382300D01*
X132085657Y-128382300D01*
X132085658Y-128382300D01*
X138064342Y-128382300D01*
X138064344Y-128382300D01*
X138153488Y-128358414D01*
X138181547Y-128342214D01*
X138233412Y-128312270D01*
X138551735Y-127993945D01*
X138613055Y-127960463D01*
X138682745Y-127965447D01*
X138692511Y-127969089D01*
X138692517Y-127969091D01*
X138752127Y-127975500D01*
X139347872Y-127975499D01*
X139407483Y-127969091D01*
X139542331Y-127918796D01*
X139657546Y-127832546D01*
X139743796Y-127717331D01*
X139751180Y-127697532D01*
X139793050Y-127641598D01*
X139858514Y-127617179D01*
X139926787Y-127632029D01*
X139976194Y-127681433D01*
X139985069Y-127701859D01*
X140015641Y-127794119D01*
X140015643Y-127794124D01*
X140107684Y-127943345D01*
X140231654Y-128067315D01*
X140380875Y-128159356D01*
X140380880Y-128159358D01*
X140547302Y-128214505D01*
X140547309Y-128214506D01*
X140650019Y-128224999D01*
X141200000Y-128224999D01*
X141249972Y-128224999D01*
X141249986Y-128224998D01*
X141352697Y-128214505D01*
X141519119Y-128159358D01*
X141519124Y-128159356D01*
X141668345Y-128067315D01*
X141792315Y-127943345D01*
X141884356Y-127794124D01*
X141884358Y-127794119D01*
X141939505Y-127627697D01*
X141939506Y-127627690D01*
X141949999Y-127524986D01*
X141950000Y-127524973D01*
X141950000Y-127250000D01*
X141200000Y-127250000D01*
X141200000Y-128224999D01*
X140650019Y-128224999D01*
X140699999Y-128224998D01*
X140700000Y-128224998D01*
X140700000Y-126750000D01*
X141200000Y-126750000D01*
X141949999Y-126750000D01*
X141949999Y-126475028D01*
X141949998Y-126475013D01*
X141939505Y-126372302D01*
X141884358Y-126205880D01*
X141884356Y-126205875D01*
X141792315Y-126056654D01*
X141668345Y-125932684D01*
X141519124Y-125840643D01*
X141519119Y-125840641D01*
X141352697Y-125785494D01*
X141352690Y-125785493D01*
X141249986Y-125775000D01*
X141200000Y-125775000D01*
X141200000Y-126750000D01*
X140700000Y-126750000D01*
X140700000Y-125775000D01*
X140699999Y-125774999D01*
X140650029Y-125775000D01*
X140650011Y-125775001D01*
X140547302Y-125785494D01*
X140380880Y-125840641D01*
X140380875Y-125840643D01*
X140231654Y-125932684D01*
X140107684Y-126056654D01*
X140015643Y-126205875D01*
X140015642Y-126205878D01*
X139985069Y-126298141D01*
X139945296Y-126355585D01*
X139880780Y-126382408D01*
X139812004Y-126370093D01*
X139760804Y-126322549D01*
X139751181Y-126302468D01*
X139743798Y-126282673D01*
X139743793Y-126282664D01*
X139657547Y-126167455D01*
X139657544Y-126167452D01*
X139542335Y-126081206D01*
X139542328Y-126081202D01*
X139407486Y-126030910D01*
X139407485Y-126030909D01*
X139407483Y-126030909D01*
X139347873Y-126024500D01*
X139347863Y-126024500D01*
X138752129Y-126024500D01*
X138752123Y-126024501D01*
X138692516Y-126030908D01*
X138557671Y-126081202D01*
X138557664Y-126081206D01*
X138442455Y-126167452D01*
X138442452Y-126167455D01*
X138356206Y-126282664D01*
X138356202Y-126282671D01*
X138305908Y-126417517D01*
X138299501Y-126477116D01*
X138299500Y-126477135D01*
X138299500Y-127203455D01*
X138279815Y-127270494D01*
X138263181Y-127291136D01*
X137909337Y-127644981D01*
X137848014Y-127678466D01*
X137821656Y-127681300D01*
X134121344Y-127681300D01*
X134054305Y-127661615D01*
X134008550Y-127608811D01*
X133997986Y-127544699D01*
X133999999Y-127524991D01*
X134000000Y-127524973D01*
X134000000Y-127250000D01*
X133124000Y-127250000D01*
X133056961Y-127230315D01*
X133011206Y-127177511D01*
X133000000Y-127126000D01*
X133000000Y-127000000D01*
X132874000Y-127000000D01*
X132806961Y-126980315D01*
X132761206Y-126927511D01*
X132750000Y-126876000D01*
X132750000Y-126750000D01*
X133250000Y-126750000D01*
X133999999Y-126750000D01*
X133999999Y-126475028D01*
X133999998Y-126475013D01*
X133989505Y-126372302D01*
X133934358Y-126205880D01*
X133934356Y-126205875D01*
X133842315Y-126056654D01*
X133718345Y-125932684D01*
X133569124Y-125840643D01*
X133569119Y-125840641D01*
X133402697Y-125785494D01*
X133402690Y-125785493D01*
X133299986Y-125775000D01*
X133250000Y-125775000D01*
X133250000Y-126750000D01*
X132750000Y-126750000D01*
X132750000Y-125775000D01*
X132749999Y-125774999D01*
X132700029Y-125775000D01*
X132700011Y-125775001D01*
X132597302Y-125785494D01*
X132430880Y-125840641D01*
X132430875Y-125840643D01*
X132281654Y-125932684D01*
X132157684Y-126056654D01*
X132065643Y-126205875D01*
X132065642Y-126205878D01*
X132035069Y-126298141D01*
X131995296Y-126355585D01*
X131930780Y-126382408D01*
X131862004Y-126370093D01*
X131810804Y-126322549D01*
X131801181Y-126302468D01*
X131793798Y-126282673D01*
X131793793Y-126282664D01*
X131707547Y-126167455D01*
X131707544Y-126167452D01*
X131592335Y-126081206D01*
X131592328Y-126081202D01*
X131457486Y-126030910D01*
X131457485Y-126030909D01*
X131457483Y-126030909D01*
X131397873Y-126024500D01*
X131397863Y-126024500D01*
X130802129Y-126024500D01*
X130802123Y-126024501D01*
X130742516Y-126030908D01*
X130607671Y-126081202D01*
X130607664Y-126081206D01*
X130492455Y-126167452D01*
X130492452Y-126167455D01*
X130406206Y-126282664D01*
X130406202Y-126282671D01*
X130355908Y-126417517D01*
X130349501Y-126477116D01*
X130349500Y-126477135D01*
X130349500Y-127203455D01*
X130329815Y-127270494D01*
X130313181Y-127291136D01*
X128962637Y-128641681D01*
X128901314Y-128675166D01*
X128874956Y-128678000D01*
X118021681Y-128678000D01*
X117954642Y-128658315D01*
X117908887Y-128605511D01*
X117898323Y-128541399D01*
X117899999Y-128524990D01*
X117900000Y-128524973D01*
X117900000Y-128250000D01*
X117024000Y-128250000D01*
X116956961Y-128230315D01*
X116911206Y-128177511D01*
X116900000Y-128126000D01*
X116900000Y-127874000D01*
X116919685Y-127806961D01*
X116972489Y-127761206D01*
X117024000Y-127750000D01*
X117899999Y-127750000D01*
X117899999Y-127475028D01*
X117899998Y-127475013D01*
X117889505Y-127372302D01*
X117834358Y-127205880D01*
X117834356Y-127205875D01*
X117766582Y-127095997D01*
X117748142Y-127028605D01*
X117769064Y-126961941D01*
X117822706Y-126917171D01*
X117872121Y-126906900D01*
X121125500Y-126906900D01*
X121192539Y-126926585D01*
X121238294Y-126979389D01*
X121249500Y-127030900D01*
X121249500Y-127522870D01*
X121249501Y-127522876D01*
X121255908Y-127582483D01*
X121306202Y-127717328D01*
X121306206Y-127717335D01*
X121392452Y-127832544D01*
X121392455Y-127832547D01*
X121507664Y-127918793D01*
X121507671Y-127918797D01*
X121524871Y-127925212D01*
X121642517Y-127969091D01*
X121702127Y-127975500D01*
X122297872Y-127975499D01*
X122357483Y-127969091D01*
X122492331Y-127918796D01*
X122607546Y-127832546D01*
X122693796Y-127717331D01*
X122701180Y-127697532D01*
X122743050Y-127641598D01*
X122808514Y-127617179D01*
X122876787Y-127632029D01*
X122926194Y-127681433D01*
X122935069Y-127701859D01*
X122965641Y-127794119D01*
X122965643Y-127794124D01*
X123057684Y-127943345D01*
X123181654Y-128067315D01*
X123330875Y-128159356D01*
X123330880Y-128159358D01*
X123497302Y-128214505D01*
X123497309Y-128214506D01*
X123600019Y-128224999D01*
X124150000Y-128224999D01*
X124199972Y-128224999D01*
X124199986Y-128224998D01*
X124302697Y-128214505D01*
X124469119Y-128159358D01*
X124469124Y-128159356D01*
X124618345Y-128067315D01*
X124742315Y-127943345D01*
X124834356Y-127794124D01*
X124834358Y-127794119D01*
X124889505Y-127627697D01*
X124889506Y-127627690D01*
X124899999Y-127524986D01*
X124900000Y-127524973D01*
X124900000Y-127250000D01*
X124150000Y-127250000D01*
X124150000Y-128224999D01*
X123600019Y-128224999D01*
X123649999Y-128224998D01*
X123650000Y-128224998D01*
X123650000Y-126750000D01*
X124150000Y-126750000D01*
X124899999Y-126750000D01*
X124899999Y-126475028D01*
X124899998Y-126475013D01*
X124889505Y-126372302D01*
X124834358Y-126205880D01*
X124834356Y-126205875D01*
X124742315Y-126056654D01*
X124618345Y-125932684D01*
X124469124Y-125840643D01*
X124469119Y-125840641D01*
X124302697Y-125785494D01*
X124302690Y-125785493D01*
X124199986Y-125775000D01*
X124150000Y-125775000D01*
X124150000Y-126750000D01*
X123650000Y-126750000D01*
X123650000Y-125897043D01*
X123658644Y-125867602D01*
X123665168Y-125837616D01*
X123668922Y-125832600D01*
X123669685Y-125830004D01*
X123686316Y-125809365D01*
X124192969Y-125302713D01*
X124239114Y-125222788D01*
X124263000Y-125133644D01*
X124263000Y-120051066D01*
X124282685Y-119984027D01*
X124335489Y-119938272D01*
X124404647Y-119928328D01*
X124430333Y-119934884D01*
X124455017Y-119944091D01*
X124514627Y-119950500D01*
X125135372Y-119950499D01*
X125194983Y-119944091D01*
X125194982Y-119944091D01*
X125202696Y-119943262D01*
X125202951Y-119945642D01*
X125260867Y-119948735D01*
X125307317Y-119977999D01*
X126009788Y-120680470D01*
X126089712Y-120726614D01*
X126178856Y-120750500D01*
X138793456Y-120750500D01*
X138860495Y-120770185D01*
X138881137Y-120786819D01*
X146334531Y-128240212D01*
X146399788Y-128305469D01*
X146399791Y-128305470D01*
X146399794Y-128305473D01*
X146479706Y-128351611D01*
X146479707Y-128351611D01*
X146479712Y-128351614D01*
X146568856Y-128375500D01*
X146568858Y-128375500D01*
X147631142Y-128375500D01*
X147631144Y-128375500D01*
X147720288Y-128351614D01*
X147736569Y-128342214D01*
X147800212Y-128305470D01*
X148072329Y-128033351D01*
X148133652Y-127999867D01*
X148203343Y-128004851D01*
X148247691Y-128033352D01*
X148281654Y-128067315D01*
X148430875Y-128159356D01*
X148430880Y-128159358D01*
X148597302Y-128214505D01*
X148597309Y-128214506D01*
X148700019Y-128224999D01*
X149250000Y-128224999D01*
X149299972Y-128224999D01*
X149299986Y-128224998D01*
X149402697Y-128214505D01*
X149569119Y-128159358D01*
X149569124Y-128159356D01*
X149718345Y-128067315D01*
X149842315Y-127943345D01*
X149934356Y-127794124D01*
X149934358Y-127794119D01*
X149989505Y-127627697D01*
X149989506Y-127627690D01*
X149999999Y-127524986D01*
X150000000Y-127524973D01*
X150000000Y-127250000D01*
X149250000Y-127250000D01*
X149250000Y-128224999D01*
X148700019Y-128224999D01*
X148749999Y-128224998D01*
X148750000Y-128224998D01*
X148750000Y-126750000D01*
X149250000Y-126750000D01*
X149999999Y-126750000D01*
X149999999Y-126475028D01*
X149999998Y-126475013D01*
X149989505Y-126372302D01*
X149934358Y-126205880D01*
X149934356Y-126205875D01*
X149842315Y-126056654D01*
X149718345Y-125932684D01*
X149569124Y-125840643D01*
X149569119Y-125840641D01*
X149402697Y-125785494D01*
X149402690Y-125785493D01*
X149299986Y-125775000D01*
X149250000Y-125775000D01*
X149250000Y-126750000D01*
X148750000Y-126750000D01*
X148750000Y-125775000D01*
X148749999Y-125774999D01*
X148700029Y-125775000D01*
X148700011Y-125775001D01*
X148597302Y-125785494D01*
X148430880Y-125840641D01*
X148430875Y-125840643D01*
X148281654Y-125932684D01*
X148247690Y-125966648D01*
X148186367Y-126000133D01*
X148116675Y-125995147D01*
X148072329Y-125966647D01*
X147800213Y-125694531D01*
X147800208Y-125694527D01*
X147720290Y-125648387D01*
X147720289Y-125648386D01*
X147720288Y-125648386D01*
X147631144Y-125624500D01*
X147631143Y-125624500D01*
X146837544Y-125624500D01*
X146770505Y-125604815D01*
X146749863Y-125588181D01*
X141567438Y-120405756D01*
X141533953Y-120344433D01*
X141538937Y-120274741D01*
X141580809Y-120218808D01*
X141642517Y-120194717D01*
X141692673Y-120189593D01*
X141857709Y-120134905D01*
X141857714Y-120134903D01*
X142005691Y-120043629D01*
X142128629Y-119920691D01*
X142219903Y-119772714D01*
X142219905Y-119772709D01*
X142274592Y-119607673D01*
X142284999Y-119505815D01*
X142285000Y-119505802D01*
X142285000Y-119250000D01*
X141421500Y-119250000D01*
X141354461Y-119230315D01*
X141308706Y-119177511D01*
X141297500Y-119126000D01*
X141297500Y-119000000D01*
X141171500Y-119000000D01*
X141104461Y-118980315D01*
X141058706Y-118927511D01*
X141047500Y-118876000D01*
X141047500Y-118750000D01*
X141547500Y-118750000D01*
X142285000Y-118750000D01*
X142285000Y-118494197D01*
X142284999Y-118494184D01*
X142274592Y-118392326D01*
X142219905Y-118227290D01*
X142219903Y-118227285D01*
X142128629Y-118079308D01*
X142005691Y-117956370D01*
X141857714Y-117865096D01*
X141857709Y-117865094D01*
X141692673Y-117810407D01*
X141590815Y-117800000D01*
X141547500Y-117800000D01*
X141547500Y-118750000D01*
X141047500Y-118750000D01*
X141047500Y-117800000D01*
X141004184Y-117800000D01*
X140902326Y-117810407D01*
X140737290Y-117865094D01*
X140737285Y-117865096D01*
X140589308Y-117956370D01*
X140466370Y-118079308D01*
X140375096Y-118227285D01*
X140375095Y-118227288D01*
X140345047Y-118317966D01*
X140305273Y-118375411D01*
X140240757Y-118402233D01*
X140171982Y-118389918D01*
X140120782Y-118342374D01*
X140111162Y-118322299D01*
X140104503Y-118304446D01*
X140019331Y-118190669D01*
X139936073Y-118128343D01*
X139905556Y-118105498D01*
X139905554Y-118105497D01*
X139772391Y-118055829D01*
X139772389Y-118055828D01*
X139772387Y-118055828D01*
X139713529Y-118049500D01*
X139131482Y-118049500D01*
X139131473Y-118049501D01*
X139072608Y-118055828D01*
X138939445Y-118105497D01*
X138825669Y-118190669D01*
X138740498Y-118304443D01*
X138740497Y-118304446D01*
X138698067Y-118418205D01*
X138690828Y-118437612D01*
X138684500Y-118496462D01*
X138684500Y-119503517D01*
X138684501Y-119503526D01*
X138685439Y-119512248D01*
X138673032Y-119581007D01*
X138625420Y-119632143D01*
X138562149Y-119649500D01*
X133021544Y-119649500D01*
X132954505Y-119629815D01*
X132933863Y-119613181D01*
X132624318Y-119303636D01*
X132590833Y-119242313D01*
X132587999Y-119215955D01*
X132587999Y-118502129D01*
X132587998Y-118502123D01*
X132587997Y-118502116D01*
X132582799Y-118453757D01*
X132581591Y-118442516D01*
X132531297Y-118307671D01*
X132531293Y-118307664D01*
X132445047Y-118192455D01*
X132445044Y-118192452D01*
X132329835Y-118106206D01*
X132329828Y-118106202D01*
X132194986Y-118055910D01*
X132194985Y-118055909D01*
X132194983Y-118055909D01*
X132135373Y-118049500D01*
X132135363Y-118049500D01*
X131514629Y-118049500D01*
X131514623Y-118049501D01*
X131447304Y-118056738D01*
X131447048Y-118054364D01*
X131389095Y-118051250D01*
X131342682Y-118022000D01*
X118882259Y-105561577D01*
X118848774Y-105500254D01*
X118853758Y-105430562D01*
X118882259Y-105386215D01*
X118953828Y-105314646D01*
X119069524Y-105155405D01*
X119158884Y-104980025D01*
X119219709Y-104792826D01*
X119250500Y-104598422D01*
X119250500Y-104401577D01*
X119219709Y-104207173D01*
X119177416Y-104077011D01*
X119158884Y-104019975D01*
X119158881Y-104019971D01*
X119158881Y-104019968D01*
X119137955Y-103978899D01*
X119125058Y-103910229D01*
X119151334Y-103845489D01*
X119160749Y-103834931D01*
X121280470Y-101715212D01*
X121326614Y-101635288D01*
X121350500Y-101546143D01*
X121350500Y-101453856D01*
X121350500Y-95339821D01*
X121350504Y-95339807D01*
X121350500Y-95302892D01*
X121350500Y-95247556D01*
X121350500Y-95247555D01*
X121350496Y-95247530D01*
X121350494Y-95247522D01*
X121350494Y-95247520D01*
X121340287Y-95209442D01*
X121326614Y-95158412D01*
X121326611Y-95158408D01*
X121326607Y-95158391D01*
X121326600Y-95158379D01*
X121326600Y-95158378D01*
X121301394Y-95114731D01*
X121280856Y-95079158D01*
X121280499Y-95078529D01*
X121280472Y-95078493D01*
X121280469Y-95078488D01*
X121280464Y-95078483D01*
X121280451Y-95078466D01*
X121280447Y-95078458D01*
X121241994Y-95040013D01*
X121215212Y-95013231D01*
X121209403Y-95007422D01*
X121209345Y-95007371D01*
X119800022Y-93598341D01*
X119771212Y-93569531D01*
X119771197Y-93569522D01*
X119771183Y-93569508D01*
X119771182Y-93569507D01*
X119729124Y-93545231D01*
X119729110Y-93545223D01*
X119691910Y-93523745D01*
X119691307Y-93523390D01*
X119691285Y-93523380D01*
X119669845Y-93517637D01*
X119650906Y-93512565D01*
X119650905Y-93512564D01*
X119650905Y-93512563D01*
X119650895Y-93512562D01*
X119639818Y-93509594D01*
X119602143Y-93499499D01*
X119602115Y-93499495D01*
X119561096Y-93499499D01*
X119561091Y-93499500D01*
X118500541Y-93499500D01*
X118433502Y-93479815D01*
X118412861Y-93463183D01*
X113499513Y-88550022D01*
X111697961Y-86748539D01*
X111695775Y-86744535D01*
X111691939Y-86742071D01*
X111679186Y-86714156D01*
X111664476Y-86687217D01*
X111664801Y-86682667D01*
X111662906Y-86678519D01*
X111667270Y-86648140D01*
X111669459Y-86617526D01*
X111672192Y-86613874D01*
X111672841Y-86609360D01*
X111692935Y-86586164D01*
X111711330Y-86561591D01*
X111716438Y-86559033D01*
X111718590Y-86556550D01*
X111730362Y-86552062D01*
X111750692Y-86541884D01*
X111758348Y-86539634D01*
X111797701Y-86533402D01*
X111962445Y-86479873D01*
X111963344Y-86479414D01*
X111970339Y-86477360D01*
X112003582Y-86477356D01*
X112036812Y-86476407D01*
X112038458Y-86477352D01*
X112040209Y-86477352D01*
X112054931Y-86486810D01*
X112092970Y-86508652D01*
X114864788Y-89280470D01*
X114944712Y-89326614D01*
X115033856Y-89350500D01*
X115033858Y-89350500D01*
X139966142Y-89350500D01*
X139966144Y-89350500D01*
X140055288Y-89326614D01*
X140135212Y-89280470D01*
X140527031Y-88888649D01*
X140588352Y-88855166D01*
X140653029Y-88858401D01*
X140657547Y-88859869D01*
X140657555Y-88859873D01*
X140822299Y-88913402D01*
X140993389Y-88940500D01*
X140993390Y-88940500D01*
X141166610Y-88940500D01*
X141166611Y-88940500D01*
X141337701Y-88913402D01*
X141502445Y-88859873D01*
X141656788Y-88781232D01*
X141796928Y-88679414D01*
X141907819Y-88568523D01*
X141969142Y-88535038D01*
X142038834Y-88540022D01*
X142094767Y-88581894D01*
X142119184Y-88647358D01*
X142119500Y-88656204D01*
X142119500Y-95596146D01*
X142129808Y-95634617D01*
X142128145Y-95704467D01*
X142088981Y-95762329D01*
X142024752Y-95789832D01*
X141955850Y-95778245D01*
X141953738Y-95777194D01*
X141898217Y-95748904D01*
X141696129Y-95683242D01*
X141486246Y-95650000D01*
X141273754Y-95650000D01*
X141063872Y-95683242D01*
X141063869Y-95683242D01*
X140861782Y-95748904D01*
X140672439Y-95845380D01*
X140618282Y-95884727D01*
X140618282Y-95884728D01*
X141250591Y-96517037D01*
X141187007Y-96534075D01*
X141072993Y-96599901D01*
X140979901Y-96692993D01*
X140914075Y-96807007D01*
X140897037Y-96870591D01*
X140264728Y-96238282D01*
X140264727Y-96238282D01*
X140225380Y-96292440D01*
X140225378Y-96292443D01*
X140174984Y-96391346D01*
X140127010Y-96442141D01*
X140059188Y-96458936D01*
X139993054Y-96436398D01*
X139949603Y-96381683D01*
X139940500Y-96335050D01*
X139940500Y-96125323D01*
X139940499Y-96125321D01*
X139925967Y-96052264D01*
X139925966Y-96052260D01*
X139904326Y-96019873D01*
X139870601Y-95969399D01*
X139787740Y-95914034D01*
X139787739Y-95914033D01*
X139787735Y-95914032D01*
X139714677Y-95899500D01*
X139714674Y-95899500D01*
X137965326Y-95899500D01*
X137965323Y-95899500D01*
X137892264Y-95914032D01*
X137892260Y-95914033D01*
X137809399Y-95969399D01*
X137754033Y-96052260D01*
X137754032Y-96052264D01*
X137739500Y-96125321D01*
X137739500Y-97874678D01*
X137754032Y-97947735D01*
X137754033Y-97947739D01*
X137754034Y-97947740D01*
X137809399Y-98030601D01*
X137892260Y-98085966D01*
X137892264Y-98085967D01*
X137965321Y-98100499D01*
X137965324Y-98100500D01*
X137965326Y-98100500D01*
X139714676Y-98100500D01*
X139714677Y-98100499D01*
X139787740Y-98085966D01*
X139870601Y-98030601D01*
X139925966Y-97947740D01*
X139940500Y-97874674D01*
X139940500Y-97664949D01*
X139960185Y-97597910D01*
X140012989Y-97552155D01*
X140082147Y-97542211D01*
X140145703Y-97571236D01*
X140174985Y-97608654D01*
X140225375Y-97707550D01*
X140264728Y-97761716D01*
X140897037Y-97129408D01*
X140914075Y-97192993D01*
X140979901Y-97307007D01*
X141072993Y-97400099D01*
X141187007Y-97465925D01*
X141250590Y-97482962D01*
X140618282Y-98115269D01*
X140618282Y-98115270D01*
X140672449Y-98154624D01*
X140861782Y-98251095D01*
X141063870Y-98316757D01*
X141273754Y-98350000D01*
X141486246Y-98350000D01*
X141696127Y-98316757D01*
X141696130Y-98316757D01*
X141898217Y-98251095D01*
X142087554Y-98154622D01*
X142141716Y-98115270D01*
X142141717Y-98115270D01*
X141509408Y-97482962D01*
X141572993Y-97465925D01*
X141687007Y-97400099D01*
X141780099Y-97307007D01*
X141845925Y-97192993D01*
X141862962Y-97129408D01*
X142495270Y-97761717D01*
X142495270Y-97761716D01*
X142534622Y-97707554D01*
X142631096Y-97518215D01*
X142663239Y-97419288D01*
X142702676Y-97361612D01*
X142767034Y-97334413D01*
X142835880Y-97346327D01*
X142887357Y-97393571D01*
X142899100Y-97419284D01*
X142900127Y-97422446D01*
X142935387Y-97491647D01*
X142978768Y-97576788D01*
X143080586Y-97716928D01*
X143203072Y-97839414D01*
X143251606Y-97874676D01*
X143343213Y-97941233D01*
X143501794Y-98022033D01*
X143552591Y-98070007D01*
X143569500Y-98132518D01*
X143569500Y-105426146D01*
X143577357Y-105455466D01*
X143577358Y-105455470D01*
X143593384Y-105515285D01*
X143593385Y-105515286D01*
X143639527Y-105595208D01*
X143639531Y-105595213D01*
X147951347Y-109907029D01*
X147984832Y-109968352D01*
X147981597Y-110033028D01*
X147926597Y-110202301D01*
X147913829Y-110282918D01*
X147899500Y-110373389D01*
X147899500Y-110546611D01*
X147926598Y-110717701D01*
X147980127Y-110882445D01*
X148058768Y-111036788D01*
X148160586Y-111176928D01*
X148283072Y-111299414D01*
X148423212Y-111401232D01*
X148577555Y-111479873D01*
X148742299Y-111533402D01*
X148913389Y-111560500D01*
X148913390Y-111560500D01*
X149086610Y-111560500D01*
X149086611Y-111560500D01*
X149257701Y-111533402D01*
X149422445Y-111479873D01*
X149576788Y-111401232D01*
X149602614Y-111382467D01*
X149614475Y-111378235D01*
X149623989Y-111369992D01*
X149646753Y-111366718D01*
X149668420Y-111358988D01*
X149680684Y-111361839D01*
X149693147Y-111360048D01*
X149714070Y-111369603D01*
X149736474Y-111374813D01*
X149745248Y-111383842D01*
X149756703Y-111389073D01*
X149769140Y-111408425D01*
X149785169Y-111424919D01*
X149788573Y-111438664D01*
X149794477Y-111447851D01*
X149799500Y-111482786D01*
X149799500Y-111653455D01*
X149779815Y-111720494D01*
X149763181Y-111741136D01*
X149552969Y-111951347D01*
X149491646Y-111984832D01*
X149426970Y-111981597D01*
X149257698Y-111926597D01*
X149126271Y-111905781D01*
X149086611Y-111899500D01*
X148913389Y-111899500D01*
X148873728Y-111905781D01*
X148742302Y-111926597D01*
X148577552Y-111980128D01*
X148423211Y-112058768D01*
X148343256Y-112116859D01*
X148283072Y-112160586D01*
X148283070Y-112160588D01*
X148283069Y-112160588D01*
X148160588Y-112283069D01*
X148160588Y-112283070D01*
X148160586Y-112283072D01*
X148116859Y-112343256D01*
X148058768Y-112423211D01*
X147980128Y-112577552D01*
X147926597Y-112742302D01*
X147926597Y-112742304D01*
X147899500Y-112913389D01*
X147899500Y-113086611D01*
X147926598Y-113257701D01*
X147980127Y-113422445D01*
X148058768Y-113576788D01*
X148160586Y-113716928D01*
X148283072Y-113839414D01*
X148423212Y-113941232D01*
X148577555Y-114019873D01*
X148742299Y-114073402D01*
X148913389Y-114100500D01*
X148913390Y-114100500D01*
X149086610Y-114100500D01*
X149086611Y-114100500D01*
X149257701Y-114073402D01*
X149422445Y-114019873D01*
X149576788Y-113941232D01*
X149716928Y-113839414D01*
X149839414Y-113716928D01*
X149941232Y-113576788D01*
X150019873Y-113422445D01*
X150073402Y-113257701D01*
X150100500Y-113086611D01*
X150100500Y-112913389D01*
X150073402Y-112742299D01*
X150019873Y-112577555D01*
X150019869Y-112577547D01*
X150018401Y-112573029D01*
X150016406Y-112503188D01*
X150048649Y-112447031D01*
X150430470Y-112065212D01*
X150476614Y-111985288D01*
X150500500Y-111896143D01*
X150500500Y-111803856D01*
X150500500Y-100643856D01*
X150476614Y-100554712D01*
X150430470Y-100474788D01*
X147508652Y-97552970D01*
X147475167Y-97491647D01*
X147478402Y-97426971D01*
X147479873Y-97422445D01*
X147533402Y-97257701D01*
X147560500Y-97086611D01*
X147560500Y-96913389D01*
X147899500Y-96913389D01*
X147899500Y-97086611D01*
X147926598Y-97257701D01*
X147980127Y-97422445D01*
X148058768Y-97576788D01*
X148160586Y-97716928D01*
X148283072Y-97839414D01*
X148423212Y-97941232D01*
X148577555Y-98019873D01*
X148742299Y-98073402D01*
X148913389Y-98100500D01*
X148913390Y-98100500D01*
X149086610Y-98100500D01*
X149086611Y-98100500D01*
X149257701Y-98073402D01*
X149422445Y-98019873D01*
X149576788Y-97941232D01*
X149716928Y-97839414D01*
X149839414Y-97716928D01*
X149941232Y-97576788D01*
X150019873Y-97422445D01*
X150073402Y-97257701D01*
X150100500Y-97086611D01*
X150100500Y-96913389D01*
X150439500Y-96913389D01*
X150439500Y-97086611D01*
X150466598Y-97257701D01*
X150520127Y-97422445D01*
X150598768Y-97576788D01*
X150700586Y-97716928D01*
X150823072Y-97839414D01*
X150963212Y-97941232D01*
X151117555Y-98019873D01*
X151282299Y-98073402D01*
X151453389Y-98100500D01*
X151453390Y-98100500D01*
X151626610Y-98100500D01*
X151626611Y-98100500D01*
X151797701Y-98073402D01*
X151962445Y-98019873D01*
X152116788Y-97941232D01*
X152256928Y-97839414D01*
X152379414Y-97716928D01*
X152481232Y-97576788D01*
X152559873Y-97422445D01*
X152613402Y-97257701D01*
X152640500Y-97086611D01*
X152640500Y-96913389D01*
X152613402Y-96742299D01*
X152559873Y-96577555D01*
X152481232Y-96423212D01*
X152379414Y-96283072D01*
X152256928Y-96160586D01*
X152116788Y-96058768D01*
X151962445Y-95980127D01*
X151797701Y-95926598D01*
X151797699Y-95926597D01*
X151797698Y-95926597D01*
X151666271Y-95905781D01*
X151626611Y-95899500D01*
X151453389Y-95899500D01*
X151413728Y-95905781D01*
X151282302Y-95926597D01*
X151117552Y-95980128D01*
X150963211Y-96058768D01*
X150905774Y-96100499D01*
X150823072Y-96160586D01*
X150823070Y-96160588D01*
X150823069Y-96160588D01*
X150700588Y-96283069D01*
X150700588Y-96283070D01*
X150700586Y-96283072D01*
X150662822Y-96335050D01*
X150598768Y-96423211D01*
X150520128Y-96577552D01*
X150466597Y-96742302D01*
X150456349Y-96807007D01*
X150439500Y-96913389D01*
X150100500Y-96913389D01*
X150073402Y-96742299D01*
X150019873Y-96577555D01*
X149941232Y-96423212D01*
X149839414Y-96283072D01*
X149716928Y-96160586D01*
X149576788Y-96058768D01*
X149422445Y-95980127D01*
X149257701Y-95926598D01*
X149257699Y-95926597D01*
X149257698Y-95926597D01*
X149126271Y-95905781D01*
X149086611Y-95899500D01*
X148913389Y-95899500D01*
X148873728Y-95905781D01*
X148742302Y-95926597D01*
X148577552Y-95980128D01*
X148423211Y-96058768D01*
X148365774Y-96100499D01*
X148283072Y-96160586D01*
X148283070Y-96160588D01*
X148283069Y-96160588D01*
X148160588Y-96283069D01*
X148160588Y-96283070D01*
X148160586Y-96283072D01*
X148122822Y-96335050D01*
X148058768Y-96423211D01*
X147980128Y-96577552D01*
X147926597Y-96742302D01*
X147916349Y-96807007D01*
X147899500Y-96913389D01*
X147560500Y-96913389D01*
X147533402Y-96742299D01*
X147479873Y-96577555D01*
X147401232Y-96423212D01*
X147299414Y-96283072D01*
X147176928Y-96160586D01*
X147036788Y-96058768D01*
X146882445Y-95980127D01*
X146717701Y-95926598D01*
X146717699Y-95926597D01*
X146717698Y-95926597D01*
X146586271Y-95905781D01*
X146546611Y-95899500D01*
X146373389Y-95899500D01*
X146341192Y-95904599D01*
X146202301Y-95926597D01*
X146033028Y-95981597D01*
X145963186Y-95983592D01*
X145907029Y-95951347D01*
X145386819Y-95431137D01*
X145353334Y-95369814D01*
X145350500Y-95343456D01*
X145350500Y-88855520D01*
X145370185Y-88788481D01*
X145422989Y-88742726D01*
X145492147Y-88732782D01*
X145547385Y-88755202D01*
X145557386Y-88762468D01*
X145583210Y-88781231D01*
X145583212Y-88781232D01*
X145737555Y-88859873D01*
X145902299Y-88913402D01*
X146073389Y-88940500D01*
X146073390Y-88940500D01*
X146246610Y-88940500D01*
X146246611Y-88940500D01*
X146417701Y-88913402D01*
X146582445Y-88859873D01*
X146736788Y-88781232D01*
X146876928Y-88679414D01*
X146999414Y-88556928D01*
X147101232Y-88416788D01*
X147179873Y-88262445D01*
X147233402Y-88097701D01*
X147260500Y-87926611D01*
X147260500Y-87753389D01*
X147599500Y-87753389D01*
X147599500Y-87926610D01*
X147615698Y-88028885D01*
X147626598Y-88097701D01*
X147672866Y-88240099D01*
X147680128Y-88262447D01*
X147697430Y-88296405D01*
X147758768Y-88416788D01*
X147860586Y-88556928D01*
X147983072Y-88679414D01*
X148123212Y-88781232D01*
X148277555Y-88859873D01*
X148442299Y-88913402D01*
X148613389Y-88940500D01*
X148613390Y-88940500D01*
X148786610Y-88940500D01*
X148786611Y-88940500D01*
X148957701Y-88913402D01*
X149122445Y-88859873D01*
X149122447Y-88859871D01*
X149126971Y-88858402D01*
X149196812Y-88856407D01*
X149252970Y-88888652D01*
X154713181Y-94348863D01*
X154746666Y-94410186D01*
X154749500Y-94436544D01*
X154749500Y-125942209D01*
X154729815Y-126009248D01*
X154677011Y-126055003D01*
X154668833Y-126058391D01*
X154607671Y-126081202D01*
X154607664Y-126081206D01*
X154492455Y-126167452D01*
X154492452Y-126167455D01*
X154406206Y-126282664D01*
X154406202Y-126282671D01*
X154355908Y-126417517D01*
X154349501Y-126477116D01*
X154349500Y-126477135D01*
X154349500Y-127522870D01*
X154349501Y-127522876D01*
X154355908Y-127582483D01*
X154406202Y-127717328D01*
X154406206Y-127717335D01*
X154492452Y-127832544D01*
X154492455Y-127832547D01*
X154607664Y-127918793D01*
X154607671Y-127918797D01*
X154624871Y-127925212D01*
X154742517Y-127969091D01*
X154802127Y-127975500D01*
X155397872Y-127975499D01*
X155457483Y-127969091D01*
X155592331Y-127918796D01*
X155707546Y-127832546D01*
X155793796Y-127717331D01*
X155801180Y-127697532D01*
X155843050Y-127641598D01*
X155908514Y-127617179D01*
X155976787Y-127632029D01*
X156026194Y-127681433D01*
X156035069Y-127701859D01*
X156065641Y-127794119D01*
X156065643Y-127794124D01*
X156157684Y-127943345D01*
X156281654Y-128067315D01*
X156430875Y-128159356D01*
X156430880Y-128159358D01*
X156597302Y-128214505D01*
X156597309Y-128214506D01*
X156700019Y-128224999D01*
X157250000Y-128224999D01*
X157299972Y-128224999D01*
X157299986Y-128224998D01*
X157402697Y-128214505D01*
X157569119Y-128159358D01*
X157569124Y-128159356D01*
X157718345Y-128067315D01*
X157842315Y-127943345D01*
X157934356Y-127794124D01*
X157934358Y-127794119D01*
X157989505Y-127627697D01*
X157989506Y-127627690D01*
X157999999Y-127524986D01*
X158000000Y-127524973D01*
X158000000Y-127250000D01*
X157250000Y-127250000D01*
X157250000Y-128224999D01*
X156700019Y-128224999D01*
X156749999Y-128224998D01*
X156750000Y-128224998D01*
X156750000Y-126750000D01*
X157250000Y-126750000D01*
X157999999Y-126750000D01*
X157999999Y-126475028D01*
X157999998Y-126475013D01*
X157989505Y-126372302D01*
X157934358Y-126205880D01*
X157934356Y-126205875D01*
X157842315Y-126056654D01*
X157718345Y-125932684D01*
X157569124Y-125840643D01*
X157569119Y-125840641D01*
X157402697Y-125785494D01*
X157402690Y-125785493D01*
X157299986Y-125775000D01*
X157250000Y-125775000D01*
X157250000Y-126750000D01*
X156750000Y-126750000D01*
X156750000Y-125775000D01*
X156749999Y-125774999D01*
X156700029Y-125775000D01*
X156700011Y-125775001D01*
X156597302Y-125785494D01*
X156430880Y-125840641D01*
X156430875Y-125840643D01*
X156281654Y-125932684D01*
X156157684Y-126056654D01*
X156065643Y-126205875D01*
X156065642Y-126205878D01*
X156035069Y-126298141D01*
X155995296Y-126355585D01*
X155930780Y-126382408D01*
X155862004Y-126370093D01*
X155810804Y-126322549D01*
X155801181Y-126302468D01*
X155793798Y-126282673D01*
X155793793Y-126282664D01*
X155707547Y-126167455D01*
X155707544Y-126167452D01*
X155592335Y-126081206D01*
X155592328Y-126081202D01*
X155531167Y-126058391D01*
X155475233Y-126016520D01*
X155450816Y-125951056D01*
X155450500Y-125942209D01*
X155450500Y-94193858D01*
X155450500Y-94193856D01*
X155426614Y-94104712D01*
X155403825Y-94065241D01*
X155380470Y-94024788D01*
X149748652Y-88392970D01*
X149715167Y-88331647D01*
X149718402Y-88266971D01*
X149719873Y-88262445D01*
X149773402Y-88097701D01*
X149800500Y-87926611D01*
X149800500Y-87753389D01*
X149773402Y-87582299D01*
X149719873Y-87417555D01*
X149641232Y-87263212D01*
X149539414Y-87123072D01*
X149416928Y-87000586D01*
X149276788Y-86898768D01*
X149122445Y-86820127D01*
X148957701Y-86766598D01*
X148957699Y-86766597D01*
X148957698Y-86766597D01*
X148810786Y-86743329D01*
X148786611Y-86739500D01*
X148613389Y-86739500D01*
X148589214Y-86743329D01*
X148442302Y-86766597D01*
X148277552Y-86820128D01*
X148123211Y-86898768D01*
X148043256Y-86956859D01*
X147983072Y-87000586D01*
X147983070Y-87000588D01*
X147983069Y-87000588D01*
X147860588Y-87123069D01*
X147860588Y-87123070D01*
X147860586Y-87123072D01*
X147860582Y-87123078D01*
X147758768Y-87263211D01*
X147680128Y-87417552D01*
X147626597Y-87582302D01*
X147599500Y-87753389D01*
X147260500Y-87753389D01*
X147233402Y-87582299D01*
X147179873Y-87417555D01*
X147179869Y-87417547D01*
X147178401Y-87413029D01*
X147176406Y-87343188D01*
X147208649Y-87287031D01*
X147610470Y-86885212D01*
X152450470Y-82045212D01*
X152496614Y-81965288D01*
X152520500Y-81876143D01*
X152520500Y-81783856D01*
X152520500Y-61816204D01*
X152540185Y-61749165D01*
X152592989Y-61703410D01*
X152662147Y-61693466D01*
X152725703Y-61722491D01*
X152732181Y-61728523D01*
X152843072Y-61839414D01*
X152983212Y-61941232D01*
X153137555Y-62019873D01*
X153302299Y-62073402D01*
X153473389Y-62100500D01*
X153473390Y-62100500D01*
X153646610Y-62100500D01*
X153646611Y-62100500D01*
X153817701Y-62073402D01*
X153982445Y-62019873D01*
X154136788Y-61941232D01*
X154276928Y-61839414D01*
X154399414Y-61716928D01*
X154501232Y-61576788D01*
X154579873Y-61422445D01*
X154633402Y-61257701D01*
X154660500Y-61086611D01*
X154660500Y-60913389D01*
X154999500Y-60913389D01*
X154999500Y-61086611D01*
X155026598Y-61257701D01*
X155080127Y-61422445D01*
X155158768Y-61576788D01*
X155260586Y-61716928D01*
X155383072Y-61839414D01*
X155523212Y-61941232D01*
X155677555Y-62019873D01*
X155842299Y-62073402D01*
X156013389Y-62100500D01*
X156013390Y-62100500D01*
X156186610Y-62100500D01*
X156186611Y-62100500D01*
X156357701Y-62073402D01*
X156522445Y-62019873D01*
X156676788Y-61941232D01*
X156816928Y-61839414D01*
X156939414Y-61716928D01*
X157041232Y-61576788D01*
X157119873Y-61422445D01*
X157120896Y-61419294D01*
X157121610Y-61418250D01*
X157121734Y-61417952D01*
X157121796Y-61417977D01*
X157160327Y-61361618D01*
X157224683Y-61334415D01*
X157293530Y-61346323D01*
X157345011Y-61393562D01*
X157356760Y-61419287D01*
X157388904Y-61518217D01*
X157485375Y-61707550D01*
X157524728Y-61761716D01*
X158157037Y-61129408D01*
X158174075Y-61192993D01*
X158239901Y-61307007D01*
X158332993Y-61400099D01*
X158447007Y-61465925D01*
X158510590Y-61482962D01*
X157878282Y-62115269D01*
X157878282Y-62115270D01*
X157932449Y-62154624D01*
X158121782Y-62251095D01*
X158323870Y-62316757D01*
X158533754Y-62350000D01*
X158746246Y-62350000D01*
X158956127Y-62316757D01*
X158956130Y-62316757D01*
X159158217Y-62251095D01*
X159347554Y-62154622D01*
X159401716Y-62115270D01*
X159401717Y-62115270D01*
X158769408Y-61482962D01*
X158832993Y-61465925D01*
X158947007Y-61400099D01*
X159040099Y-61307007D01*
X159105925Y-61192993D01*
X159122962Y-61129408D01*
X159755270Y-61761717D01*
X159755270Y-61761716D01*
X159794622Y-61707554D01*
X159799514Y-61697954D01*
X159847488Y-61647157D01*
X159915308Y-61630361D01*
X159981444Y-61652897D01*
X160020486Y-61697954D01*
X160025375Y-61707550D01*
X160064728Y-61761716D01*
X160697037Y-61129408D01*
X160714075Y-61192993D01*
X160779901Y-61307007D01*
X160872993Y-61400099D01*
X160987007Y-61465925D01*
X161050590Y-61482962D01*
X160418282Y-62115269D01*
X160418282Y-62115270D01*
X160472449Y-62154624D01*
X160661782Y-62251095D01*
X160863870Y-62316757D01*
X161073754Y-62350000D01*
X161286246Y-62350000D01*
X161496127Y-62316757D01*
X161496130Y-62316757D01*
X161698217Y-62251095D01*
X161887554Y-62154622D01*
X161941716Y-62115270D01*
X161941717Y-62115270D01*
X161309408Y-61482962D01*
X161372993Y-61465925D01*
X161487007Y-61400099D01*
X161580099Y-61307007D01*
X161645925Y-61192993D01*
X161662962Y-61129409D01*
X162295270Y-61761717D01*
X162295270Y-61761716D01*
X162334622Y-61707554D01*
X162431095Y-61518217D01*
X162496757Y-61316130D01*
X162496757Y-61316127D01*
X162530000Y-61106246D01*
X162530000Y-60893753D01*
X162496757Y-60683872D01*
X162496757Y-60683869D01*
X162431095Y-60481782D01*
X162334624Y-60292449D01*
X162295270Y-60238282D01*
X162295269Y-60238282D01*
X161662962Y-60870590D01*
X161645925Y-60807007D01*
X161580099Y-60692993D01*
X161487007Y-60599901D01*
X161372993Y-60534075D01*
X161309409Y-60517037D01*
X161941716Y-59884728D01*
X161887550Y-59845375D01*
X161698217Y-59748904D01*
X161496129Y-59683242D01*
X161286246Y-59650000D01*
X161073754Y-59650000D01*
X160863872Y-59683242D01*
X160863869Y-59683242D01*
X160661782Y-59748904D01*
X160472439Y-59845380D01*
X160418282Y-59884727D01*
X160418282Y-59884728D01*
X161050591Y-60517037D01*
X160987007Y-60534075D01*
X160872993Y-60599901D01*
X160779901Y-60692993D01*
X160714075Y-60807007D01*
X160697037Y-60870591D01*
X160064728Y-60238282D01*
X160064727Y-60238282D01*
X160025380Y-60292440D01*
X160020483Y-60302051D01*
X159972506Y-60352845D01*
X159904684Y-60369638D01*
X159838550Y-60347098D01*
X159799516Y-60302048D01*
X159794626Y-60292452D01*
X159755270Y-60238282D01*
X159755269Y-60238282D01*
X159122962Y-60870590D01*
X159105925Y-60807007D01*
X159040099Y-60692993D01*
X158947007Y-60599901D01*
X158832993Y-60534075D01*
X158769409Y-60517037D01*
X159401716Y-59884728D01*
X159347550Y-59845375D01*
X159158217Y-59748904D01*
X158956129Y-59683242D01*
X158746246Y-59650000D01*
X158533754Y-59650000D01*
X158323872Y-59683242D01*
X158323869Y-59683242D01*
X158121782Y-59748904D01*
X157932439Y-59845380D01*
X157878282Y-59884727D01*
X157878282Y-59884728D01*
X158510591Y-60517037D01*
X158447007Y-60534075D01*
X158332993Y-60599901D01*
X158239901Y-60692993D01*
X158174075Y-60807007D01*
X158157037Y-60870591D01*
X157524728Y-60238282D01*
X157524727Y-60238282D01*
X157485380Y-60292439D01*
X157388904Y-60481783D01*
X157356760Y-60580712D01*
X157317322Y-60638388D01*
X157252964Y-60665586D01*
X157184117Y-60653671D01*
X157132642Y-60606427D01*
X157120898Y-60580712D01*
X157119873Y-60577555D01*
X157041232Y-60423212D01*
X156939414Y-60283072D01*
X156816928Y-60160586D01*
X156676788Y-60058768D01*
X156522445Y-59980127D01*
X156357701Y-59926598D01*
X156357699Y-59926597D01*
X156357698Y-59926597D01*
X156226271Y-59905781D01*
X156186611Y-59899500D01*
X156013389Y-59899500D01*
X155973728Y-59905781D01*
X155842302Y-59926597D01*
X155677552Y-59980128D01*
X155523211Y-60058768D01*
X155443256Y-60116859D01*
X155383072Y-60160586D01*
X155383070Y-60160588D01*
X155383069Y-60160588D01*
X155260588Y-60283069D01*
X155260588Y-60283070D01*
X155260586Y-60283072D01*
X155253771Y-60292452D01*
X155158768Y-60423211D01*
X155080128Y-60577552D01*
X155026597Y-60742302D01*
X155016349Y-60807007D01*
X154999500Y-60913389D01*
X154660500Y-60913389D01*
X154633402Y-60742299D01*
X154579873Y-60577555D01*
X154501232Y-60423212D01*
X154399414Y-60283072D01*
X154276928Y-60160586D01*
X154136788Y-60058768D01*
X153982447Y-59980128D01*
X153982446Y-59980127D01*
X153982445Y-59980127D01*
X153817701Y-59926598D01*
X153817699Y-59926597D01*
X153817698Y-59926597D01*
X153686271Y-59905781D01*
X153646611Y-59899500D01*
X153473389Y-59899500D01*
X153433728Y-59905781D01*
X153302302Y-59926597D01*
X153137552Y-59980128D01*
X152983211Y-60058768D01*
X152903256Y-60116859D01*
X152843072Y-60160586D01*
X152843070Y-60160588D01*
X152843069Y-60160588D01*
X152732181Y-60271477D01*
X152670858Y-60304962D01*
X152601166Y-60299978D01*
X152545233Y-60258106D01*
X152520816Y-60192642D01*
X152520500Y-60183796D01*
X152520500Y-58972844D01*
X152540185Y-58905805D01*
X152556819Y-58885163D01*
X153641796Y-57800186D01*
X154750470Y-56691512D01*
X154766426Y-56663874D01*
X154816990Y-56615660D01*
X154885597Y-56602435D01*
X154950462Y-56628401D01*
X154974129Y-56652986D01*
X155020586Y-56716928D01*
X155143072Y-56839414D01*
X155283212Y-56941232D01*
X155437555Y-57019873D01*
X155602299Y-57073402D01*
X155773389Y-57100500D01*
X155773390Y-57100500D01*
X155946610Y-57100500D01*
X155946611Y-57100500D01*
X156117701Y-57073402D01*
X156282445Y-57019873D01*
X156436788Y-56941232D01*
X156576928Y-56839414D01*
X156699414Y-56716928D01*
X156801232Y-56576788D01*
X156879873Y-56422445D01*
X156933402Y-56257701D01*
X156960500Y-56086611D01*
X156960500Y-55913389D01*
X157299500Y-55913389D01*
X157299500Y-56086610D01*
X157326597Y-56257697D01*
X157326597Y-56257699D01*
X157326598Y-56257701D01*
X157380127Y-56422445D01*
X157458768Y-56576788D01*
X157560586Y-56716928D01*
X157683072Y-56839414D01*
X157823212Y-56941232D01*
X157977555Y-57019873D01*
X158142299Y-57073402D01*
X158313389Y-57100500D01*
X158313390Y-57100500D01*
X158486610Y-57100500D01*
X158486611Y-57100500D01*
X158657701Y-57073402D01*
X158822445Y-57019873D01*
X158976788Y-56941232D01*
X159116928Y-56839414D01*
X159239414Y-56716928D01*
X159341232Y-56576788D01*
X159419873Y-56422445D01*
X159420896Y-56419294D01*
X159421610Y-56418250D01*
X159421734Y-56417952D01*
X159421796Y-56417977D01*
X159460327Y-56361618D01*
X159524683Y-56334415D01*
X159593530Y-56346323D01*
X159645011Y-56393562D01*
X159656760Y-56419287D01*
X159688904Y-56518217D01*
X159785375Y-56707550D01*
X159824728Y-56761716D01*
X160457037Y-56129408D01*
X160474075Y-56192993D01*
X160539901Y-56307007D01*
X160632993Y-56400099D01*
X160747007Y-56465925D01*
X160810590Y-56482962D01*
X160178282Y-57115269D01*
X160178282Y-57115270D01*
X160232449Y-57154624D01*
X160421782Y-57251095D01*
X160623870Y-57316757D01*
X160833754Y-57350000D01*
X161046246Y-57350000D01*
X161256127Y-57316757D01*
X161256130Y-57316757D01*
X161458217Y-57251095D01*
X161647554Y-57154622D01*
X161701716Y-57115270D01*
X161701717Y-57115270D01*
X161069408Y-56482962D01*
X161132993Y-56465925D01*
X161247007Y-56400099D01*
X161340099Y-56307007D01*
X161405925Y-56192993D01*
X161422962Y-56129409D01*
X162055270Y-56761717D01*
X162055270Y-56761716D01*
X162094622Y-56707554D01*
X162191095Y-56518217D01*
X162256757Y-56316130D01*
X162256757Y-56316127D01*
X162290000Y-56106246D01*
X162290000Y-55893753D01*
X162256757Y-55683872D01*
X162256757Y-55683869D01*
X162191095Y-55481782D01*
X162094624Y-55292449D01*
X162055270Y-55238282D01*
X162055269Y-55238282D01*
X161422962Y-55870590D01*
X161405925Y-55807007D01*
X161340099Y-55692993D01*
X161247007Y-55599901D01*
X161132993Y-55534075D01*
X161069409Y-55517037D01*
X161701716Y-54884728D01*
X161647550Y-54845375D01*
X161458217Y-54748904D01*
X161256129Y-54683242D01*
X161046246Y-54650000D01*
X160833754Y-54650000D01*
X160623872Y-54683242D01*
X160623869Y-54683242D01*
X160421782Y-54748904D01*
X160232439Y-54845380D01*
X160178282Y-54884727D01*
X160178282Y-54884728D01*
X160810591Y-55517037D01*
X160747007Y-55534075D01*
X160632993Y-55599901D01*
X160539901Y-55692993D01*
X160474075Y-55807007D01*
X160457037Y-55870591D01*
X159824728Y-55238282D01*
X159824727Y-55238282D01*
X159785380Y-55292439D01*
X159688904Y-55481783D01*
X159656760Y-55580712D01*
X159617322Y-55638388D01*
X159552964Y-55665586D01*
X159484117Y-55653671D01*
X159432642Y-55606427D01*
X159420898Y-55580712D01*
X159419873Y-55577555D01*
X159341232Y-55423212D01*
X159239414Y-55283072D01*
X159116928Y-55160586D01*
X158976788Y-55058768D01*
X158822445Y-54980127D01*
X158657701Y-54926598D01*
X158657699Y-54926597D01*
X158657698Y-54926597D01*
X158526271Y-54905781D01*
X158486611Y-54899500D01*
X158313389Y-54899500D01*
X158273728Y-54905781D01*
X158142302Y-54926597D01*
X158142299Y-54926598D01*
X157979990Y-54979336D01*
X157977552Y-54980128D01*
X157823211Y-55058768D01*
X157743256Y-55116859D01*
X157683072Y-55160586D01*
X157683070Y-55160588D01*
X157683069Y-55160588D01*
X157560588Y-55283069D01*
X157560588Y-55283070D01*
X157560586Y-55283072D01*
X157542139Y-55308462D01*
X157458768Y-55423211D01*
X157380128Y-55577552D01*
X157326597Y-55742302D01*
X157299500Y-55913389D01*
X156960500Y-55913389D01*
X156933402Y-55742299D01*
X156879873Y-55577555D01*
X156801232Y-55423212D01*
X156699414Y-55283072D01*
X156576928Y-55160586D01*
X156436788Y-55058768D01*
X156282445Y-54980127D01*
X156117701Y-54926598D01*
X156117699Y-54926597D01*
X156117698Y-54926597D01*
X155986271Y-54905781D01*
X155946611Y-54899500D01*
X155773389Y-54899500D01*
X155741192Y-54904599D01*
X155602301Y-54926597D01*
X155433028Y-54981597D01*
X155363186Y-54983592D01*
X155307029Y-54951347D01*
X153725213Y-53369531D01*
X153725208Y-53369527D01*
X153645290Y-53323386D01*
X153645287Y-53323385D01*
X153645221Y-53323368D01*
X153645221Y-53323367D01*
X153574485Y-53304414D01*
X153556144Y-53299500D01*
X153556143Y-53299500D01*
X128638630Y-53299500D01*
X128637436Y-53299500D01*
X128597884Y-53299497D01*
X128597873Y-53299500D01*
X128597856Y-53299500D01*
X128594758Y-53300329D01*
X128594756Y-53300330D01*
X128571445Y-53306576D01*
X128550860Y-53312092D01*
X128550854Y-53312093D01*
X128550852Y-53312094D01*
X128508737Y-53323374D01*
X128508717Y-53323382D01*
X128474296Y-53343255D01*
X128474291Y-53343258D01*
X128428809Y-53369513D01*
X128428799Y-53369520D01*
X128428788Y-53369531D01*
X128403787Y-53394531D01*
X126558642Y-55239378D01*
X126558643Y-55239379D01*
X126554809Y-55243213D01*
X126554798Y-55243224D01*
X126554788Y-55243231D01*
X126528768Y-55269250D01*
X126527078Y-55270940D01*
X126527075Y-55270941D01*
X126489537Y-55308475D01*
X126473572Y-55336127D01*
X126423005Y-55384342D01*
X126354397Y-55397564D01*
X126289533Y-55371596D01*
X126265870Y-55347013D01*
X126219414Y-55283072D01*
X126096928Y-55160586D01*
X125956788Y-55058768D01*
X125802445Y-54980127D01*
X125637701Y-54926598D01*
X125637699Y-54926597D01*
X125637698Y-54926597D01*
X125506271Y-54905781D01*
X125466611Y-54899500D01*
X125293389Y-54899500D01*
X125253728Y-54905781D01*
X125122302Y-54926597D01*
X125122299Y-54926598D01*
X124959990Y-54979336D01*
X124957552Y-54980128D01*
X124803211Y-55058768D01*
X124723256Y-55116859D01*
X124663072Y-55160586D01*
X124663070Y-55160588D01*
X124663069Y-55160588D01*
X124540588Y-55283069D01*
X124540588Y-55283070D01*
X124540586Y-55283072D01*
X124522139Y-55308462D01*
X124438768Y-55423211D01*
X124360128Y-55577552D01*
X124306597Y-55742302D01*
X124279500Y-55913389D01*
X124279500Y-56086610D01*
X124306597Y-56257698D01*
X124361597Y-56426970D01*
X124363592Y-56496811D01*
X124331348Y-56552969D01*
X124189528Y-56694790D01*
X124189527Y-56694791D01*
X124143387Y-56774709D01*
X124143386Y-56774712D01*
X124119500Y-56863856D01*
X124119500Y-60183796D01*
X124099815Y-60250835D01*
X124047011Y-60296590D01*
X123977853Y-60306534D01*
X123914297Y-60277509D01*
X123907819Y-60271477D01*
X123796930Y-60160588D01*
X123796928Y-60160586D01*
X123656788Y-60058768D01*
X123502447Y-59980128D01*
X123502446Y-59980127D01*
X123502445Y-59980127D01*
X123337701Y-59926598D01*
X123337699Y-59926597D01*
X123337698Y-59926597D01*
X123206271Y-59905781D01*
X123166611Y-59899500D01*
X122993389Y-59899500D01*
X122953728Y-59905781D01*
X122822302Y-59926597D01*
X122657552Y-59980128D01*
X122503211Y-60058768D01*
X122423256Y-60116859D01*
X122363072Y-60160586D01*
X122363070Y-60160588D01*
X122363069Y-60160588D01*
X122240588Y-60283069D01*
X122240588Y-60283070D01*
X122240586Y-60283072D01*
X122233771Y-60292452D01*
X122138768Y-60423211D01*
X122060128Y-60577552D01*
X122006597Y-60742302D01*
X121996349Y-60807007D01*
X121979500Y-60913389D01*
X121979500Y-61086611D01*
X122006598Y-61257701D01*
X122060127Y-61422445D01*
X122138768Y-61576788D01*
X122240586Y-61716928D01*
X122363072Y-61839414D01*
X122503212Y-61941232D01*
X122657555Y-62019873D01*
X122822299Y-62073402D01*
X122993389Y-62100500D01*
X122993390Y-62100500D01*
X123166610Y-62100500D01*
X123166611Y-62100500D01*
X123337701Y-62073402D01*
X123502445Y-62019873D01*
X123656788Y-61941232D01*
X123796928Y-61839414D01*
X123907819Y-61728523D01*
X123969142Y-61695038D01*
X124038834Y-61700022D01*
X124094767Y-61741894D01*
X124119184Y-61807358D01*
X124119500Y-61816204D01*
X124119500Y-68167155D01*
X124099815Y-68234194D01*
X124083181Y-68254836D01*
X107756426Y-84581590D01*
X107695103Y-84615075D01*
X107625411Y-84610091D01*
X107569478Y-84568219D01*
X107547127Y-84518097D01*
X107545966Y-84512260D01*
X107520716Y-84474470D01*
X107490601Y-84429399D01*
X107426541Y-84386596D01*
X107407739Y-84374033D01*
X107407735Y-84374032D01*
X107334677Y-84359500D01*
X107334674Y-84359500D01*
X106934500Y-84359500D01*
X106867461Y-84339815D01*
X106821706Y-84287011D01*
X106810500Y-84235500D01*
X106810500Y-62473767D01*
X106830185Y-62406728D01*
X106882989Y-62360973D01*
X106938851Y-62350376D01*
X106938851Y-62350000D01*
X106940836Y-62350000D01*
X106941131Y-62349944D01*
X106942177Y-62350000D01*
X107590000Y-62350000D01*
X107590000Y-61433012D01*
X107647007Y-61465925D01*
X107774174Y-61500000D01*
X107905826Y-61500000D01*
X108032993Y-61465925D01*
X108090000Y-61433012D01*
X108090000Y-62350000D01*
X108737828Y-62350000D01*
X108737844Y-62349999D01*
X108797372Y-62343598D01*
X108797379Y-62343596D01*
X108932086Y-62293354D01*
X108932093Y-62293350D01*
X109047187Y-62207190D01*
X109047190Y-62207187D01*
X109133350Y-62092093D01*
X109133354Y-62092086D01*
X109183596Y-61957379D01*
X109183598Y-61957372D01*
X109189999Y-61897844D01*
X109190000Y-61897827D01*
X109190000Y-61605050D01*
X109209685Y-61538011D01*
X109262489Y-61492256D01*
X109331647Y-61482312D01*
X109395203Y-61511337D01*
X109424485Y-61548756D01*
X109438766Y-61576786D01*
X109469357Y-61618890D01*
X109540586Y-61716928D01*
X109663072Y-61839414D01*
X109803212Y-61941232D01*
X109957555Y-62019873D01*
X110122299Y-62073402D01*
X110293389Y-62100500D01*
X110293390Y-62100500D01*
X110466610Y-62100500D01*
X110466611Y-62100500D01*
X110637701Y-62073402D01*
X110802445Y-62019873D01*
X110956788Y-61941232D01*
X111096928Y-61839414D01*
X111219414Y-61716928D01*
X111321232Y-61576788D01*
X111399873Y-61422445D01*
X111453402Y-61257701D01*
X111480500Y-61086611D01*
X111480500Y-60913389D01*
X111819500Y-60913389D01*
X111819500Y-61086611D01*
X111846598Y-61257701D01*
X111900127Y-61422445D01*
X111978768Y-61576788D01*
X112080586Y-61716928D01*
X112203072Y-61839414D01*
X112343212Y-61941232D01*
X112497555Y-62019873D01*
X112662299Y-62073402D01*
X112833389Y-62100500D01*
X112833390Y-62100500D01*
X113006610Y-62100500D01*
X113006611Y-62100500D01*
X113177701Y-62073402D01*
X113342445Y-62019873D01*
X113496788Y-61941232D01*
X113636928Y-61839414D01*
X113759414Y-61716928D01*
X113861232Y-61576788D01*
X113939873Y-61422445D01*
X113993402Y-61257701D01*
X114020500Y-61086611D01*
X114020500Y-60913389D01*
X114359500Y-60913389D01*
X114359500Y-61086611D01*
X114386598Y-61257701D01*
X114440127Y-61422445D01*
X114518768Y-61576788D01*
X114620586Y-61716928D01*
X114743072Y-61839414D01*
X114883212Y-61941232D01*
X115037555Y-62019873D01*
X115202299Y-62073402D01*
X115373389Y-62100500D01*
X115373390Y-62100500D01*
X115546610Y-62100500D01*
X115546611Y-62100500D01*
X115717701Y-62073402D01*
X115882445Y-62019873D01*
X116036788Y-61941232D01*
X116176928Y-61839414D01*
X116299414Y-61716928D01*
X116401232Y-61576788D01*
X116479873Y-61422445D01*
X116533402Y-61257701D01*
X116560500Y-61086611D01*
X116560500Y-60913389D01*
X116899500Y-60913389D01*
X116899500Y-61086611D01*
X116926598Y-61257701D01*
X116980127Y-61422445D01*
X117058768Y-61576788D01*
X117160586Y-61716928D01*
X117283072Y-61839414D01*
X117423212Y-61941232D01*
X117577555Y-62019873D01*
X117742299Y-62073402D01*
X117913389Y-62100500D01*
X117913390Y-62100500D01*
X118086610Y-62100500D01*
X118086611Y-62100500D01*
X118257701Y-62073402D01*
X118422445Y-62019873D01*
X118576788Y-61941232D01*
X118716928Y-61839414D01*
X118839414Y-61716928D01*
X118941232Y-61576788D01*
X119019873Y-61422445D01*
X119073402Y-61257701D01*
X119100500Y-61086611D01*
X119100500Y-60913389D01*
X119439500Y-60913389D01*
X119439500Y-61086611D01*
X119466598Y-61257701D01*
X119520127Y-61422445D01*
X119598768Y-61576788D01*
X119700586Y-61716928D01*
X119823072Y-61839414D01*
X119963212Y-61941232D01*
X120117555Y-62019873D01*
X120282299Y-62073402D01*
X120453389Y-62100500D01*
X120453390Y-62100500D01*
X120626610Y-62100500D01*
X120626611Y-62100500D01*
X120797701Y-62073402D01*
X120962445Y-62019873D01*
X121116788Y-61941232D01*
X121256928Y-61839414D01*
X121379414Y-61716928D01*
X121481232Y-61576788D01*
X121559873Y-61422445D01*
X121613402Y-61257701D01*
X121640500Y-61086611D01*
X121640500Y-60913389D01*
X121613402Y-60742299D01*
X121559873Y-60577555D01*
X121481232Y-60423212D01*
X121379414Y-60283072D01*
X121256928Y-60160586D01*
X121116788Y-60058768D01*
X120962447Y-59980128D01*
X120962446Y-59980127D01*
X120962445Y-59980127D01*
X120797701Y-59926598D01*
X120797699Y-59926597D01*
X120797698Y-59926597D01*
X120666271Y-59905781D01*
X120626611Y-59899500D01*
X120453389Y-59899500D01*
X120413728Y-59905781D01*
X120282302Y-59926597D01*
X120117552Y-59980128D01*
X119963211Y-60058768D01*
X119883256Y-60116859D01*
X119823072Y-60160586D01*
X119823070Y-60160588D01*
X119823069Y-60160588D01*
X119700588Y-60283069D01*
X119700588Y-60283070D01*
X119700586Y-60283072D01*
X119693771Y-60292452D01*
X119598768Y-60423211D01*
X119520128Y-60577552D01*
X119466597Y-60742302D01*
X119456349Y-60807007D01*
X119439500Y-60913389D01*
X119100500Y-60913389D01*
X119073402Y-60742299D01*
X119019873Y-60577555D01*
X118941232Y-60423212D01*
X118839414Y-60283072D01*
X118716928Y-60160586D01*
X118576788Y-60058768D01*
X118422447Y-59980128D01*
X118422446Y-59980127D01*
X118422445Y-59980127D01*
X118257701Y-59926598D01*
X118257699Y-59926597D01*
X118257698Y-59926597D01*
X118126271Y-59905781D01*
X118086611Y-59899500D01*
X117913389Y-59899500D01*
X117873728Y-59905781D01*
X117742302Y-59926597D01*
X117577552Y-59980128D01*
X117423211Y-60058768D01*
X117343256Y-60116859D01*
X117283072Y-60160586D01*
X117283070Y-60160588D01*
X117283069Y-60160588D01*
X117160588Y-60283069D01*
X117160588Y-60283070D01*
X117160586Y-60283072D01*
X117153771Y-60292452D01*
X117058768Y-60423211D01*
X116980128Y-60577552D01*
X116926597Y-60742302D01*
X116916349Y-60807007D01*
X116899500Y-60913389D01*
X116560500Y-60913389D01*
X116533402Y-60742299D01*
X116479873Y-60577555D01*
X116401232Y-60423212D01*
X116299414Y-60283072D01*
X116176928Y-60160586D01*
X116036788Y-60058768D01*
X115882447Y-59980128D01*
X115882446Y-59980127D01*
X115882445Y-59980127D01*
X115717701Y-59926598D01*
X115717699Y-59926597D01*
X115717698Y-59926597D01*
X115586271Y-59905781D01*
X115546611Y-59899500D01*
X115373389Y-59899500D01*
X115333728Y-59905781D01*
X115202302Y-59926597D01*
X115037552Y-59980128D01*
X114883211Y-60058768D01*
X114803256Y-60116859D01*
X114743072Y-60160586D01*
X114743070Y-60160588D01*
X114743069Y-60160588D01*
X114620588Y-60283069D01*
X114620588Y-60283070D01*
X114620586Y-60283072D01*
X114613771Y-60292452D01*
X114518768Y-60423211D01*
X114440128Y-60577552D01*
X114386597Y-60742302D01*
X114376349Y-60807007D01*
X114359500Y-60913389D01*
X114020500Y-60913389D01*
X113993402Y-60742299D01*
X113939873Y-60577555D01*
X113861232Y-60423212D01*
X113759414Y-60283072D01*
X113636928Y-60160586D01*
X113496788Y-60058768D01*
X113342447Y-59980128D01*
X113342446Y-59980127D01*
X113342445Y-59980127D01*
X113177701Y-59926598D01*
X113177699Y-59926597D01*
X113177698Y-59926597D01*
X113046271Y-59905781D01*
X113006611Y-59899500D01*
X112833389Y-59899500D01*
X112793728Y-59905781D01*
X112662302Y-59926597D01*
X112497552Y-59980128D01*
X112343211Y-60058768D01*
X112263256Y-60116859D01*
X112203072Y-60160586D01*
X112203070Y-60160588D01*
X112203069Y-60160588D01*
X112080588Y-60283069D01*
X112080588Y-60283070D01*
X112080586Y-60283072D01*
X112073771Y-60292452D01*
X111978768Y-60423211D01*
X111900128Y-60577552D01*
X111846597Y-60742302D01*
X111836349Y-60807007D01*
X111819500Y-60913389D01*
X111480500Y-60913389D01*
X111453402Y-60742299D01*
X111399873Y-60577555D01*
X111321232Y-60423212D01*
X111219414Y-60283072D01*
X111096928Y-60160586D01*
X110956788Y-60058768D01*
X110802447Y-59980128D01*
X110802446Y-59980127D01*
X110802445Y-59980127D01*
X110637701Y-59926598D01*
X110637699Y-59926597D01*
X110637698Y-59926597D01*
X110506271Y-59905781D01*
X110466611Y-59899500D01*
X110293389Y-59899500D01*
X110253728Y-59905781D01*
X110122302Y-59926597D01*
X109957552Y-59980128D01*
X109803211Y-60058768D01*
X109723256Y-60116859D01*
X109663072Y-60160586D01*
X109663070Y-60160588D01*
X109663069Y-60160588D01*
X109540588Y-60283069D01*
X109540588Y-60283070D01*
X109540586Y-60283072D01*
X109533771Y-60292452D01*
X109438768Y-60423211D01*
X109424485Y-60451244D01*
X109376510Y-60502040D01*
X109308689Y-60518835D01*
X109242554Y-60496297D01*
X109199103Y-60441582D01*
X109190000Y-60394949D01*
X109190000Y-60102172D01*
X109189999Y-60102155D01*
X109183598Y-60042627D01*
X109183596Y-60042620D01*
X109133354Y-59907913D01*
X109133350Y-59907906D01*
X109047190Y-59792812D01*
X109047187Y-59792809D01*
X108932093Y-59706649D01*
X108932086Y-59706645D01*
X108797379Y-59656403D01*
X108797372Y-59656401D01*
X108737844Y-59650000D01*
X108090000Y-59650000D01*
X108090000Y-60566988D01*
X108032993Y-60534075D01*
X107905826Y-60500000D01*
X107774174Y-60500000D01*
X107647007Y-60534075D01*
X107590000Y-60566988D01*
X107590000Y-59650000D01*
X106942152Y-59650000D01*
X106941102Y-59650056D01*
X106940865Y-59650000D01*
X106938851Y-59650000D01*
X106938851Y-59649523D01*
X106873110Y-59633969D01*
X106824608Y-59583676D01*
X106810500Y-59526232D01*
X106810500Y-57336544D01*
X106819144Y-57307103D01*
X106825668Y-57277117D01*
X106829422Y-57272101D01*
X106830185Y-57269505D01*
X106846819Y-57248863D01*
X106958863Y-57136819D01*
X107020186Y-57103334D01*
X107046544Y-57100500D01*
X108474676Y-57100500D01*
X108474677Y-57100499D01*
X108547740Y-57085966D01*
X108630601Y-57030601D01*
X108685966Y-56947740D01*
X108685966Y-56947739D01*
X108685967Y-56947738D01*
X108685967Y-56947735D01*
X108690531Y-56924791D01*
X108700500Y-56874674D01*
X108700500Y-55913389D01*
X109039500Y-55913389D01*
X109039500Y-56086610D01*
X109066597Y-56257697D01*
X109066597Y-56257699D01*
X109066598Y-56257701D01*
X109120127Y-56422445D01*
X109198768Y-56576788D01*
X109300586Y-56716928D01*
X109423072Y-56839414D01*
X109563212Y-56941232D01*
X109717555Y-57019873D01*
X109882299Y-57073402D01*
X110053389Y-57100500D01*
X110053390Y-57100500D01*
X110226610Y-57100500D01*
X110226611Y-57100500D01*
X110397701Y-57073402D01*
X110562445Y-57019873D01*
X110716788Y-56941232D01*
X110856928Y-56839414D01*
X110979414Y-56716928D01*
X111081232Y-56576788D01*
X111159873Y-56422445D01*
X111213402Y-56257701D01*
X111240500Y-56086611D01*
X111240500Y-55913389D01*
X111579500Y-55913389D01*
X111579500Y-56086610D01*
X111606597Y-56257697D01*
X111606597Y-56257699D01*
X111606598Y-56257701D01*
X111660127Y-56422445D01*
X111738768Y-56576788D01*
X111840586Y-56716928D01*
X111963072Y-56839414D01*
X112103212Y-56941232D01*
X112257555Y-57019873D01*
X112422299Y-57073402D01*
X112593389Y-57100500D01*
X112593390Y-57100500D01*
X112766610Y-57100500D01*
X112766611Y-57100500D01*
X112937701Y-57073402D01*
X113102445Y-57019873D01*
X113256788Y-56941232D01*
X113396928Y-56839414D01*
X113519414Y-56716928D01*
X113621232Y-56576788D01*
X113699873Y-56422445D01*
X113753402Y-56257701D01*
X113780500Y-56086611D01*
X113780500Y-55913389D01*
X114119500Y-55913389D01*
X114119500Y-56086610D01*
X114146597Y-56257697D01*
X114146597Y-56257699D01*
X114146598Y-56257701D01*
X114200127Y-56422445D01*
X114278768Y-56576788D01*
X114380586Y-56716928D01*
X114503072Y-56839414D01*
X114643212Y-56941232D01*
X114797555Y-57019873D01*
X114962299Y-57073402D01*
X115133389Y-57100500D01*
X115133390Y-57100500D01*
X115306610Y-57100500D01*
X115306611Y-57100500D01*
X115477701Y-57073402D01*
X115642445Y-57019873D01*
X115796788Y-56941232D01*
X115936928Y-56839414D01*
X116059414Y-56716928D01*
X116161232Y-56576788D01*
X116239873Y-56422445D01*
X116293402Y-56257701D01*
X116320500Y-56086611D01*
X116320500Y-55913389D01*
X116659500Y-55913389D01*
X116659500Y-56086610D01*
X116686597Y-56257697D01*
X116686597Y-56257699D01*
X116686598Y-56257701D01*
X116740127Y-56422445D01*
X116818768Y-56576788D01*
X116920586Y-56716928D01*
X117043072Y-56839414D01*
X117183212Y-56941232D01*
X117337555Y-57019873D01*
X117502299Y-57073402D01*
X117673389Y-57100500D01*
X117673390Y-57100500D01*
X117846610Y-57100500D01*
X117846611Y-57100500D01*
X118017701Y-57073402D01*
X118182445Y-57019873D01*
X118336788Y-56941232D01*
X118476928Y-56839414D01*
X118599414Y-56716928D01*
X118701232Y-56576788D01*
X118779873Y-56422445D01*
X118833402Y-56257701D01*
X118860500Y-56086611D01*
X118860500Y-55913389D01*
X119199500Y-55913389D01*
X119199500Y-56086610D01*
X119226597Y-56257697D01*
X119226597Y-56257699D01*
X119226598Y-56257701D01*
X119280127Y-56422445D01*
X119358768Y-56576788D01*
X119460586Y-56716928D01*
X119583072Y-56839414D01*
X119723212Y-56941232D01*
X119877555Y-57019873D01*
X120042299Y-57073402D01*
X120213389Y-57100500D01*
X120213390Y-57100500D01*
X120386610Y-57100500D01*
X120386611Y-57100500D01*
X120557701Y-57073402D01*
X120722445Y-57019873D01*
X120876788Y-56941232D01*
X121016928Y-56839414D01*
X121139414Y-56716928D01*
X121241232Y-56576788D01*
X121319873Y-56422445D01*
X121373402Y-56257701D01*
X121400500Y-56086611D01*
X121400500Y-55913389D01*
X121739500Y-55913389D01*
X121739500Y-56086610D01*
X121766597Y-56257697D01*
X121766597Y-56257699D01*
X121766598Y-56257701D01*
X121820127Y-56422445D01*
X121898768Y-56576788D01*
X122000586Y-56716928D01*
X122123072Y-56839414D01*
X122263212Y-56941232D01*
X122417555Y-57019873D01*
X122582299Y-57073402D01*
X122753389Y-57100500D01*
X122753390Y-57100500D01*
X122926610Y-57100500D01*
X122926611Y-57100500D01*
X123097701Y-57073402D01*
X123262445Y-57019873D01*
X123416788Y-56941232D01*
X123556928Y-56839414D01*
X123679414Y-56716928D01*
X123781232Y-56576788D01*
X123859873Y-56422445D01*
X123913402Y-56257701D01*
X123940500Y-56086611D01*
X123940500Y-55913389D01*
X123913402Y-55742299D01*
X123859873Y-55577555D01*
X123781232Y-55423212D01*
X123679414Y-55283072D01*
X123556928Y-55160586D01*
X123416788Y-55058768D01*
X123262445Y-54980127D01*
X123097701Y-54926598D01*
X123097699Y-54926597D01*
X123097698Y-54926597D01*
X122966271Y-54905781D01*
X122926611Y-54899500D01*
X122753389Y-54899500D01*
X122713728Y-54905781D01*
X122582302Y-54926597D01*
X122582299Y-54926598D01*
X122419990Y-54979336D01*
X122417552Y-54980128D01*
X122263211Y-55058768D01*
X122183256Y-55116859D01*
X122123072Y-55160586D01*
X122123070Y-55160588D01*
X122123069Y-55160588D01*
X122000588Y-55283069D01*
X122000588Y-55283070D01*
X122000586Y-55283072D01*
X121982139Y-55308462D01*
X121898768Y-55423211D01*
X121820128Y-55577552D01*
X121766597Y-55742302D01*
X121739500Y-55913389D01*
X121400500Y-55913389D01*
X121373402Y-55742299D01*
X121319873Y-55577555D01*
X121241232Y-55423212D01*
X121139414Y-55283072D01*
X121016928Y-55160586D01*
X120876788Y-55058768D01*
X120722445Y-54980127D01*
X120557701Y-54926598D01*
X120557699Y-54926597D01*
X120557698Y-54926597D01*
X120426271Y-54905781D01*
X120386611Y-54899500D01*
X120213389Y-54899500D01*
X120173728Y-54905781D01*
X120042302Y-54926597D01*
X120042299Y-54926598D01*
X119879990Y-54979336D01*
X119877552Y-54980128D01*
X119723211Y-55058768D01*
X119643256Y-55116859D01*
X119583072Y-55160586D01*
X119583070Y-55160588D01*
X119583069Y-55160588D01*
X119460588Y-55283069D01*
X119460588Y-55283070D01*
X119460586Y-55283072D01*
X119442139Y-55308462D01*
X119358768Y-55423211D01*
X119280128Y-55577552D01*
X119226597Y-55742302D01*
X119199500Y-55913389D01*
X118860500Y-55913389D01*
X118833402Y-55742299D01*
X118779873Y-55577555D01*
X118701232Y-55423212D01*
X118599414Y-55283072D01*
X118476928Y-55160586D01*
X118336788Y-55058768D01*
X118182445Y-54980127D01*
X118017701Y-54926598D01*
X118017699Y-54926597D01*
X118017698Y-54926597D01*
X117886271Y-54905781D01*
X117846611Y-54899500D01*
X117673389Y-54899500D01*
X117633728Y-54905781D01*
X117502302Y-54926597D01*
X117502299Y-54926598D01*
X117339990Y-54979336D01*
X117337552Y-54980128D01*
X117183211Y-55058768D01*
X117103256Y-55116859D01*
X117043072Y-55160586D01*
X117043070Y-55160588D01*
X117043069Y-55160588D01*
X116920588Y-55283069D01*
X116920588Y-55283070D01*
X116920586Y-55283072D01*
X116902139Y-55308462D01*
X116818768Y-55423211D01*
X116740128Y-55577552D01*
X116686597Y-55742302D01*
X116659500Y-55913389D01*
X116320500Y-55913389D01*
X116293402Y-55742299D01*
X116239873Y-55577555D01*
X116161232Y-55423212D01*
X116059414Y-55283072D01*
X115936928Y-55160586D01*
X115796788Y-55058768D01*
X115642445Y-54980127D01*
X115477701Y-54926598D01*
X115477699Y-54926597D01*
X115477698Y-54926597D01*
X115346271Y-54905781D01*
X115306611Y-54899500D01*
X115133389Y-54899500D01*
X115093728Y-54905781D01*
X114962302Y-54926597D01*
X114962299Y-54926598D01*
X114799990Y-54979336D01*
X114797552Y-54980128D01*
X114643211Y-55058768D01*
X114563256Y-55116859D01*
X114503072Y-55160586D01*
X114503070Y-55160588D01*
X114503069Y-55160588D01*
X114380588Y-55283069D01*
X114380588Y-55283070D01*
X114380586Y-55283072D01*
X114362139Y-55308462D01*
X114278768Y-55423211D01*
X114200128Y-55577552D01*
X114146597Y-55742302D01*
X114119500Y-55913389D01*
X113780500Y-55913389D01*
X113753402Y-55742299D01*
X113699873Y-55577555D01*
X113621232Y-55423212D01*
X113519414Y-55283072D01*
X113396928Y-55160586D01*
X113256788Y-55058768D01*
X113102445Y-54980127D01*
X112937701Y-54926598D01*
X112937699Y-54926597D01*
X112937698Y-54926597D01*
X112806271Y-54905781D01*
X112766611Y-54899500D01*
X112593389Y-54899500D01*
X112553728Y-54905781D01*
X112422302Y-54926597D01*
X112422299Y-54926598D01*
X112259990Y-54979336D01*
X112257552Y-54980128D01*
X112103211Y-55058768D01*
X112023256Y-55116859D01*
X111963072Y-55160586D01*
X111963070Y-55160588D01*
X111963069Y-55160588D01*
X111840588Y-55283069D01*
X111840588Y-55283070D01*
X111840586Y-55283072D01*
X111822139Y-55308462D01*
X111738768Y-55423211D01*
X111660128Y-55577552D01*
X111606597Y-55742302D01*
X111579500Y-55913389D01*
X111240500Y-55913389D01*
X111213402Y-55742299D01*
X111159873Y-55577555D01*
X111081232Y-55423212D01*
X110979414Y-55283072D01*
X110856928Y-55160586D01*
X110716788Y-55058768D01*
X110562445Y-54980127D01*
X110397701Y-54926598D01*
X110397699Y-54926597D01*
X110397698Y-54926597D01*
X110266271Y-54905781D01*
X110226611Y-54899500D01*
X110053389Y-54899500D01*
X110013728Y-54905781D01*
X109882302Y-54926597D01*
X109882299Y-54926598D01*
X109719990Y-54979336D01*
X109717552Y-54980128D01*
X109563211Y-55058768D01*
X109483256Y-55116859D01*
X109423072Y-55160586D01*
X109423070Y-55160588D01*
X109423069Y-55160588D01*
X109300588Y-55283069D01*
X109300588Y-55283070D01*
X109300586Y-55283072D01*
X109282139Y-55308462D01*
X109198768Y-55423211D01*
X109120128Y-55577552D01*
X109066597Y-55742302D01*
X109039500Y-55913389D01*
X108700500Y-55913389D01*
X108700500Y-55125326D01*
X108700500Y-55125323D01*
X108700499Y-55125321D01*
X108685967Y-55052264D01*
X108685966Y-55052260D01*
X108674423Y-55034985D01*
X108630601Y-54969399D01*
X108555455Y-54919189D01*
X108547739Y-54914033D01*
X108547735Y-54914032D01*
X108474677Y-54899500D01*
X108474674Y-54899500D01*
X106725326Y-54899500D01*
X106725323Y-54899500D01*
X106652264Y-54914032D01*
X106652260Y-54914033D01*
X106569399Y-54969399D01*
X106514033Y-55052260D01*
X106514032Y-55052264D01*
X106499500Y-55125321D01*
X106499500Y-56553456D01*
X106479815Y-56620495D01*
X106463181Y-56641137D01*
X106179531Y-56924786D01*
X106179527Y-56924791D01*
X106170036Y-56941232D01*
X106166279Y-56947740D01*
X106160629Y-56957526D01*
X106133386Y-57004711D01*
X106109500Y-57093856D01*
X106109500Y-84235500D01*
X106089815Y-84302539D01*
X106037011Y-84348294D01*
X105985500Y-84359500D01*
X105585323Y-84359500D01*
X105512264Y-84374032D01*
X105512260Y-84374033D01*
X105429399Y-84429399D01*
X105374033Y-84512260D01*
X105374032Y-84512264D01*
X105359500Y-84585321D01*
X105359500Y-86334678D01*
X105374032Y-86407735D01*
X105374033Y-86407739D01*
X105392405Y-86435235D01*
X105429399Y-86490601D01*
X105506151Y-86541884D01*
X105512260Y-86545966D01*
X105512264Y-86545967D01*
X105585321Y-86560499D01*
X105585324Y-86560500D01*
X105585326Y-86560500D01*
X105905500Y-86560500D01*
X105972539Y-86580185D01*
X106018294Y-86632989D01*
X106029500Y-86684500D01*
X106029500Y-93775500D01*
X106009815Y-93842539D01*
X105957011Y-93888294D01*
X105905500Y-93899500D01*
X105505323Y-93899500D01*
X105432264Y-93914032D01*
X105432260Y-93914033D01*
X105349399Y-93969399D01*
X105294033Y-94052260D01*
X105294032Y-94052264D01*
X105279500Y-94125321D01*
X91500500Y-94125321D01*
X91500500Y-52624500D01*
X91520185Y-52557461D01*
X91572989Y-52511706D01*
X91624500Y-52500500D01*
X170375500Y-52500500D01*
X170442539Y-52520185D01*
G37*
%TD.AperFunction*%
%TD*%
M02*
